ply
format ascii 1.0
element vertex 46
property double x
property double y
property double z
property uchar red
property uchar green
property uchar blue
end_header
0.0000000000000000 0.0000000000000000 0.0000000000000000 0 255 0
-0.2445351332944905 -0.6876449991735860 0.6836277669142780 0 255 0
22167517202256.7890625000000000 11973907413183.6562500000000000 284788788039246.9375000000000000 255 255 255
-112327966657450.2187500000000000 -42091389023475.8359375000000000 280958657901546.2500000000000000 255 255 255
78625657335823.5312500000000000 26698761628677.1445312500000000 291879687842789.1250000000000000 255 255 255
81385116732999.7656250000000000 -7454800919374.0869140625000000 277368033979723.3437500000000000 255 255 255
17796764418474.8476562500000000 10833829139502.9394531250000000 283874805297437.0625000000000000 255 255 255
100762658788498.6562500000000000 46491759153609.9609375000000000 292703101411235.5000000000000000 255 255 255
-27494289866844.3437500000000000 -16060650617907.5859375000000000 258807240748390.5312500000000000 255 255 255
107343724158334.5937500000000000 -43228272381048.1875000000000000 267655849635992.0937500000000000 255 255 255
19797004244796.9179687500000000 -11732223145791.6367187500000000 263092108248390.6875000000000000 255 255 255
94525680413339.7187500000000000 31576404408763.9335937500000000 291826731041871.9375000000000000 255 255 255
102054836638184.8125000000000000 -21459923512346.0664062500000000 277992145421359.6250000000000000 255 255 255
-52281037863839.6875000000000000 34608912740754.5156250000000000 317587669856335.7500000000000000 255 255 255
-58284166093840.0468750000000000 17053311634302.2265625000000000 307964036424102.1875000000000000 255 255 255
16055332243782.2109375000000000 -2367634051264.0366210937500000 272142026104191.4687500000000000 255 255 255
15290825523557.3378906250000000 673132827640.2944335937500000 274748742276313.3437500000000000 255 255 255
-68567241293128.6953125000000000 71934598535842.2031250000000000 353313321377029.0625000000000000 255 255 255
62035587545331.6484375000000000 66272602468624.5703125000000000 303310648400852.3125000000000000 255 255 255
-117624417787716.6718750000000000 78396603201483.0625000000000000 373012029528865.3750000000000000 255 255 255
103565405241317.6250000000000000 -43660653509006.6171875000000000 271539233726981.5937500000000000 255 255 255
83509138988224.6250000000000000 33348645316053.6914062500000000 290714152553361.6250000000000000 255 255 255
38710694073927.5546875000000000 -6730042956003.8154296875000000 269063812593267.4062500000000000 255 255 255
-87026596114855.2187500000000000 19565021551973.9531250000000000 326188214513257.9375000000000000 255 255 255
-10926455019487.4531250000000000 -9498579302130.4472656250000000 264546623137203.9687500000000000 255 255 255
91809236015741.5468750000000000 22736654322109.3632812500000000 289393150394001.8125000000000000 255 255 255
101197634615697.1250000000000000 -47843156713309.1093750000000000 264321775562884.1250000000000000 255 255 255
-67150513838620.6484375000000000 64445814472729.6015625000000000 344771875839301.4375000000000000 255 255 255
70434212627831.4062500000000000 27101939743614.2539062500000000 291885482379146.6875000000000000 255 255 255
-75764811659879.0000000000000000 -11253024697880.5781250000000000 286916861607088.3125000000000000 255 255 255
105447605104324.5781250000000000 -46272484698249.4140625000000000 274462962022569.9687500000000000 255 255 255
95325968536833.9375000000000000 28377433335319.8750000000000000 291868037536321.9375000000000000 255 255 255
-55259751599832.5625000000000000 38280691691142.5546875000000000 321012039098709.0625000000000000 255 255 255
-49748697614681.4531250000000000 26414090177632.8242187500000000 312597542171816.4375000000000000 255 255 255
101819008948167.8750000000000000 -48746454698900.4296875000000000 266503456180022.3125000000000000 255 255 255
35375545450663.8203125000000000 -16466560165894.6484375000000000 260045661091565.3750000000000000 255 255 255
-149285583503945.1875000000000000 42420086907668.9921875000000000 381929166326705.3750000000000000 255 255 255
78107384578075.8750000000000000 14024791600542.6289062500000000 288370585276208.8125000000000000 255 255 255
70285127151165.7968750000000000 18775040927165.8281250000000000 288391734447223.8750000000000000 255 255 255
-77597061740603.1718750000000000 49953567664741.0312500000000000 342279975402198.7500000000000000 255 255 255
-60939925434826.5000000000000000 50143440387821.3046875000000000 338352723642652.3125000000000000 255 255 255
-105404390395581.0937500000000000 74983368926161.5000000000000000 370607357278390.3750000000000000 255 255 255
-134678229899858.7812500000000000 79339424131097.7812500000000000 392555170164006.0000000000000000 255 255 255
-50081644960976.1953125000000000 45468650000217.1562500000000000 324829594435480.1875000000000000 255 255 255
90578035550054.0781250000000000 -20606768586049.8750000000000000 272525483846296.2187500000000000 255 255 255
-89768688664808.2812500000000000 6956563476046.1298828125000000 315416996293830.1875000000000000 255 255 255
