ply
format ascii 1.0
element vertex 52
property double x
property double y
property double z
property uchar red
property uchar green
property uchar blue
end_header
0.0000000000000000 0.0000000000000000 0.0000000000000000 0 255 0
-0.0417667403510188 0.2686935046148400 0.9623197701275007 0 255 0
-92.2294059776210275 -92.0383230974303501 992.6931452908979736 255 255 255
142.7391446429460871 17.5850751245371590 1923.8040541115615270 255 255 255
65.6713196272401944 -4.7004031932750454 -219.6095669220987645 255 255 255
-90.8811392356961534 -213.3270047253186874 1764.2412254675657550 255 255 255
40.4078124590930372 14.4055580946872830 230.0693749124008320 255 255 255
35.0940976397725493 10.3676162700268826 78.5781614043211363 255 255 255
41.6753055774119545 25.4585834478437185 188.9035384585578754 255 255 255
48.0547486174148233 -10.2435745479981577 382.3553615453209318 255 255 255
38.0760283731228029 -18.3139306967381152 219.8266715343215196 255 255 255
3.0253379079828595 8.0586378026858245 145.0849067369661896 255 255 255
50.1421029896208168 -15.2773021362499115 -187.6783756298889330 255 255 255
67.5869688920715248 23.3034752704533261 -149.2171631509502845 255 255 255
35.8216199537006759 6.6316129365298924 137.4563410036233222 255 255 255
34.5579134216730210 19.8026444221895126 115.0773342598295272 255 255 255
15.8182283414450655 -12.1846206161091128 -212.9569802346201186 255 255 255
24.0766280201721585 8.2149853331244937 74.1001741771920877 255 255 255
30.4490169494915364 5.0354487095193008 84.1731542166407252 255 255 255
32.7887789740933826 13.9013622082843185 114.5281259148753179 255 255 255
18.1078217128195185 -3.9543411557410399 -1096.2189927187941976 255 255 255
23.7858568980201639 10.7318491022092761 103.1397134040623911 255 255 255
56.0880436172887400 -12.7604784369363831 -260.9379803399916682 255 255 255
35.5412705995463440 -1.1368833714167421 191.8906232353942585 255 255 255
59.0348178785498376 -9.4100101991482941 -141.6896702417710117 255 255 255
32.5242473081015575 18.3559186281863909 92.9093982906698557 255 255 255
60.2152430325354899 -7.8632856914971114 -141.2489171180932885 255 255 255
35.2034047621045474 24.6888329013524590 96.5131903535310727 255 255 255
50.7722273252140468 46.6078889872543414 134.1555467772826944 255 255 255
35.2714443287908495 17.6826849020437855 95.5467880311584139 255 255 255
62.3702543568087719 8.5332994338171595 -280.2823025407503224 255 255 255
61.2110828900316903 -20.0235312380585633 -230.2548228136425053 255 255 255
35.2714443287908495 17.6826849020437855 95.5467880311584139 255 255 255
3.9204497114039443 20.3387040073309073 60.3939105408598635 255 255 255
-2645.9351045360376702 -1391.9759407844642283 8214.4092730598185881 255 255 255
826.0497282757921766 333.8126530987681804 -3405.8632015274033620 255 255 255
28.2069659917289250 9.6617677628345451 114.9761423209326807 255 255 255
52.7793345298493364 38.8008387630146601 411.1446306016752033 255 255 255
-5.4623840284786782 8.1415810522713663 25.5758755349889029 255 255 255
35.6280853942976847 10.1395088428313596 90.2568714088820201 255 255 255
18.4966711296863977 -22.7667661587174095 -66.5109349610746960 255 255 255
31.5824618137156925 27.5431121506512895 71.2805739428819152 255 255 255
45.9626241071415862 -1.2496299026809388 -91.9699831094900020 255 255 255
34.8030921457552296 8.5986820284155776 87.2647892866534960 255 255 255
36.1582828285669464 16.0500248391340286 97.3183338482336495 255 255 255
25.4934866022626210 -34.9845740501727605 -102.7622743449346387 255 255 255
-4.0164956502302465 7.4282983746809457 21.7838899503898880 255 255 255
-41.5060510424219444 28.8655231208388265 91.1793524961843787 255 255 255
-5.1044528276835859 8.0951811697425473 25.2568563025983188 255 255 255
35.6174790910095282 8.6511986925483519 107.9161373391277152 255 255 255
-0.7702907222621483 -55.2310142304588538 422.2882226114991795 255 255 255
56.2148856768831919 -28.4167862389104116 180.2984724780224894 255 255 255
