ply
format ascii 1.0
element vertex 382
property double x
property double y
property double z
property uchar red
property uchar green
property uchar blue
end_header
0.1171437487783461 -0.0403950914188964 -0.0388544141170127 0 255 0
0.0524400983796402 -0.0199230700053984 -0.0402948183380851 0 255 0
0.0193904818536611 0.0108052888692585 -0.0361131474782356 0 255 0
-0.0070607982901812 0.0008772041446654 -0.0268230178454664 0 255 0
-0.0597133370485133 0.0145244299737588 -0.0277144584531881 0 255 0
-0.0990136180202073 0.0369829671287961 -0.0318137336908469 0 255 0
-0.1680615487725296 0.0462528801013307 -0.0327040829287690 0 255 0
-0.2148286420278112 0.0702411318621828 -0.0307675857712880 0 255 0
-0.2711835315336795 0.0766691876996837 -0.0234282271932239 0 255 0
-0.3287311529355248 0.0536958935216793 -0.0167351606495460 0 255 0
-0.3937177486312373 0.0313161236171504 -0.0152741134418766 0 255 0
-0.4408374559523743 0.0013334107874939 -0.0216767616097036 0 255 0
-0.5025447746266217 -0.0056957605229759 -0.0284841261442705 0 255 0
-0.5836526428754404 0.0095172489431949 -0.0278319593206647 0 255 0
-0.6304376915905292 0.0283110084424590 -0.0226692395305925 0 255 0
-0.6849201096415468 0.0303794981273176 -0.0248407038096894 0 255 0
-0.7425693883244987 0.0376831104201842 -0.0304695346266650 0 255 0
-0.8103742195591116 0.0612709873471186 -0.0301089494999409 0 255 0
-0.8563509207521978 0.0809564331392385 -0.0244530513687974 0 255 0
-0.9008390958994357 0.0621221760832764 -0.0229263695667673 0 255 0
-0.9592401634110235 0.0742931903906305 -0.0303700990890035 0 255 0
-1.0098449065195239 0.0969536866135446 -0.0364483143973050 0 255 0
-1.0352198055793700 0.0961547097449817 -0.0275525349562235 0 255 0
-1.0804776396343418 0.1099176461274063 -0.0253825948765122 0 255 0
-1.1087797153114929 0.0991830771467081 -0.0279514994362193 0 255 0
-1.1362703787982362 0.0985914607467128 -0.0289518180823556 0 255 0
-1.1782991073796760 0.1153131580154703 -0.0312060186714099 0 255 0
-1.1802345393854128 0.0775338114211142 -0.0298126865062684 0 255 0
-1.1821307059330037 0.0627406940292548 -0.0316190043211595 0 255 0
-1.1975152474493995 0.0444277032964373 -0.0282263265692939 0 255 0
-1.2456107837675996 0.1115023770186882 -0.0413875120541810 0 255 0
-1.2504568365244215 0.0887972850427372 -0.0322339761630363 0 255 0
-1.2964816769280751 0.1024881156915965 -0.0255984363872230 0 255 0
-1.3160418799920419 0.1039754922278509 -0.0275752730612207 0 255 0
-1.3433830061822829 0.1395522445978002 -0.0311861178213647 0 255 0
-1.3652944968643765 0.1263442623455753 -0.0265851193547654 0 255 0
-1.3649628943643934 0.1176908667524949 -0.0266713587334761 0 255 0
-1.4466557423712980 0.1571160384035359 -0.0233558245302302 0 255 0
2.8060929133070589 -0.3883499771637765 12.8678480288538903 255 255 255
2.6901696652339591 4.8549540087523155 12.8807741080721421 255 255 255
-0.6772755307887791 0.1244511381140847 12.7227816071371151 255 255 255
-7.0985297942442154 -3.5798881248055925 15.4535297687707232 255 255 255
1.1321547354422417 0.1696591959680286 12.9355169867540472 255 255 255
-6.6313424064105018 -3.3468718925554568 14.9147800716881331 255 255 255
-4.4069050923768138 2.8598746389291798 13.6046459079271944 255 255 255
-6.5557154432796780 -3.1760055128413516 14.9419277510211028 255 255 255
1.5178304931472297 0.5487676275040059 12.8454231059750104 255 255 255
-4.3582413369329940 3.0327188794626307 13.5544933660392459 255 255 255
-8.5271337536854563 -3.1709991105952842 15.4643468539513833 255 255 255
-4.2637108520216662 3.0492871929929675 13.6494104600035637 255 255 255
0.7646647444262910 -1.7743484669027254 13.1411615696524589 255 255 255
-3.9008904661801513 3.0818838582917714 13.4822796600690893 255 255 255
6.7306000579226453 -1.8620508447942163 14.2146136203502493 255 255 255
-1.1896922860287598 -1.3782280662778967 13.0063354397559650 255 255 255
-4.4719740006887534 -2.7938884343528820 14.2706224480863479 255 255 255
2.0664358964052703 0.8732843367705767 12.8163147236148962 255 255 255
-0.0832102737048710 -2.0622589159964182 13.3851613687681716 255 255 255
-0.1243284110222629 -1.2103528528240155 12.9976509445701005 255 255 255
1.9703359867447288 -2.5866039050106480 13.3804760795478028 255 255 255
2.1790086550912622 1.0262245801226848 12.7445400738978964 255 255 255
2.8211831533837031 3.1101916503009894 12.9292538609346774 255 255 255
0.8551568528965066 1.0479789428482205 12.7909475613084922 255 255 255
1.6333674597351884 1.1058535711067399 12.5700052245731424 255 255 255
1.5634046304841351 3.4762219080429015 12.8533537500219488 255 255 255
-1.0697654416533653 -1.0610890589987101 13.1331460982485630 255 255 255
2.3694730805056037 3.6709835996091198 12.9768948693209136 255 255 255
4.6525144244978769 3.6733056674967828 12.9371961249991312 255 255 255
1.7012929253005591 1.2565235418559493 12.5529893108325776 255 255 255
-1.0281128341918941 -0.6715254367612101 13.0557450144400136 255 255 255
-1.1343244377325126 1.4135638299487843 12.9390226890316491 255 255 255
-0.8993268304406865 -0.5826374807035128 12.9914419200089206 255 255 255
2.9629919022701454 1.2857017738451737 12.5942820383560399 255 255 255
0.0036198003093802 -0.1206116463194134 12.7902642408246887 255 255 255
2.1000356194997756 -0.0152112518367464 12.8491301110196652 255 255 255
2.9598012797915878 3.9539541248409340 12.8556644570720557 255 255 255
3.5995320543388183 4.3751314628576106 13.1162521154001350 255 255 255
-4.2599786717484660 4.7925730259948889 13.8062915775595663 255 255 255
2.2347245898677235 1.7871289883149499 12.8121549132228711 255 255 255
0.3692913528465697 4.5073065670604455 13.0897379416891440 255 255 255
-1.1180196852563629 1.5999258314026699 12.7823856685176711 255 255 255
2.7568918227285604 4.5025479885306785 13.0957701184212070 255 255 255
1.6014906561102327 1.6311720592248060 12.6782330302606514 255 255 255
3.0170900747752616 2.1133470882293213 12.6639857331751742 255 255 255
-0.9191748890446627 1.6664948789856291 12.8038081733863365 255 255 255
-4.4731082106431801 2.4411070571479727 13.5660460240980711 255 255 255
6.0729904203598206 -1.4587349965958887 13.9550323121561526 255 255 255
-0.8081776739007970 -1.1916215129143903 12.8727867587445211 255 255 255
-6.6119623605251387 -0.8961723188632593 14.4578144895171690 255 255 255
-3.9057836603114651 2.7686346973711324 13.3985704987993994 255 255 255
5.9639058755247003 -0.8285741208012446 13.3201784557839975 255 255 255
3.2432827856151172 -0.3893990240528115 13.1138738787409057 255 255 255
-3.0971584401882764 -0.2018751672609316 13.3568292061738312 255 255 255
0.1386703846847432 -2.0934734919103835 13.3430347221390395 255 255 255
-8.4251949964915411 -2.2821138594927044 15.5381211493543319 255 255 255
-0.5252345659335899 -1.8732105171465914 13.2116712474830820 255 255 255
-0.9304141644982412 -1.0044586567475573 13.0877106741299336 255 255 255
-4.8023638295719522 -0.8430097290973535 13.8057978498331071 255 255 255
3.8323011720942501 -0.5123054467719087 13.2249559358922024 255 255 255
1.9197191686995523 2.3950259621533494 12.7646405490596297 255 255 255
-4.6584458389836607 2.7084313009092438 13.6833030769907982 255 255 255
-4.9876536366650477 2.8512552648077851 13.7476652418547562 255 255 255
2.4520238612807068 2.7754812063575742 12.9060068083055839 255 255 255
-4.5228684078350563 3.3275246118502007 14.0394998803124178 255 255 255
6.7717521566326848 3.4066970597990407 14.0525152173825614 255 255 255
6.7562049505711510 3.7207331606019962 13.9833490974643819 255 255 255
2.2830863202984761 3.5117552628475455 12.8838139953533446 255 255 255
1.8892874269139419 0.3386436432241898 12.7701265335676748 255 255 255
-4.4544293773884576 3.8992555557659090 13.7473931314846034 255 255 255
2.6669274232492359 3.6706819479920045 13.0528849056979404 255 255 255
2.5939277561485916 0.3628405133184167 12.9467197130285356 255 255 255
2.4205046343561554 0.5379629739733954 13.0352429871259972 255 255 255
2.9396019170033347 4.5101599824158880 12.9975179893139234 255 255 255
0.7694385565794738 0.8683558259038775 13.0463161052396384 255 255 255
-4.3952988446593384 5.2180285102339923 13.9224847951723145 255 255 255
-1.4973265325246323 0.9793338991585594 12.7856590512072810 255 255 255
1.0701660025427457 1.2249465694081914 12.7826017010908242 255 255 255
2.8852743600530060 1.2780794918430043 13.0823740868783887 255 255 255
2.8421882726548509 1.2626841530131132 12.9402719549518128 255 255 255
5.9227354101544964 -2.7282601160346558 14.2714999317291653 255 255 255
1.2239095713061348 1.7023467658632221 12.4677603575975375 255 255 255
-1.4503827644218203 1.5814674335968282 12.8706881902933397 255 255 255
-5.0579274149508286 1.9340360171610438 13.7650356832216882 255 255 255
1.4586140470758107 1.8754828961696253 12.6618001943291443 255 255 255
3.1513839524643212 1.9695654760918269 12.6705696362746245 255 255 255
1.5004617137554264 2.0657621467356164 12.7198156845380108 255 255 255
7.3688606764143829 -3.2784419122007269 15.2579333853740788 255 255 255
-4.6090501425071793 3.0373515782256733 13.5689838200962996 255 255 255
3.8822858353515421 3.1120044042584070 12.9625230082331377 255 255 255
7.3547568312504845 -2.9757953032271218 15.1402490587833451 255 255 255
6.4685108115770920 -1.1363785085997073 14.0709475563631585 255 255 255
4.3173798959992880 3.2905888021144278 13.3101618605490177 255 255 255
-3.4733894257780125 -2.7407420899579948 14.0856216140121191 255 255 255
-4.2786451521755273 -2.5560312530603193 14.1923110786766227 255 255 255
2.5425262611425210 0.6831813429507207 12.9403137285143668 255 255 255
2.9235761088906824 1.5559734751193348 12.6348382999639863 255 255 255
6.9832988524573940 -0.9748035522187791 14.5651241593738678 255 255 255
1.3690054419844293 -0.2798166182475432 12.7448688564813892 255 255 255
0.5652624155619759 -2.0579682199637879 13.2521384372405038 255 255 255
2.0024264206298761 0.1083914511197539 12.7466882821519025 255 255 255
3.2780832139267133 4.0814947938062867 13.1086070170003097 255 255 255
-5.1262985683522029 2.4808916192247619 13.8702370186896697 255 255 255
2.9721869109662489 0.1089755040489100 12.9646079515244192 255 255 255
-0.1781251931547963 4.6859558382213828 12.9282370281073078 255 255 255
-0.2028744318705360 -1.9436851065026226 13.2172881950947527 255 255 255
-0.7767474121698584 4.7433328348257202 12.9663199989403370 255 255 255
6.5495610770106278 3.8497753151875802 13.9527766617333953 255 255 255
1.1631101615839348 0.5072097414510265 12.8723360280567185 255 255 255
2.4257022330883822 -0.3349547231809640 13.1111224069372856 255 255 255
0.0943346171909500 -1.5106271446935686 12.9786547765318332 255 255 255
-5.1460233204257326 1.6266748154342070 13.8526222871994928 255 255 255
3.0870815531122404 2.5716538822729680 12.5312571343466779 255 255 255
2.4959732901448066 3.8814692873702286 12.6735796029959022 255 255 255
3.3890340548134454 3.4529776318925478 13.0873955232588575 255 255 255
6.0101843140684208 1.3612774537049779 13.7831154461404015 255 255 255
6.2764445676810396 3.7440464353536442 14.5060709624813349 255 255 255
0.6508777048872594 0.4776496265322776 12.7744960539981012 255 255 255
1.0954914151721216 -1.9378902093139070 13.1645802623727253 255 255 255
-1.7067224385921647 1.3616634751714574 12.6727996541125236 255 255 255
-1.1579689120227321 0.8716429245304367 12.8516227143813175 255 255 255
5.4602245473434667 2.8740725856004250 13.8097389320426238 255 255 255
-1.2321013332419870 3.3646651378245340 12.9471662307012565 255 255 255
4.0426547471668917 2.6770441529964835 13.0187053797583445 255 255 255
6.3107005402434799 4.8180937944197710 14.5612723162800268 255 255 255
-3.9252704431040599 -1.2421868862740517 13.8790739988565299 255 255 255
-3.7482415206441719 0.5119518671452857 13.3666788166447681 255 255 255
2.0039815659898106 4.2315396369171747 13.1202163315722693 255 255 255
-6.8822756896878596 2.2323245149704931 14.7986631747045116 255 255 255
2.1255498899583198 1.8960201606078326 12.7104396144221905 255 255 255
-6.6868160488618065 -3.5503521561539233 15.3154445262368437 255 255 255
1.7615112497460874 -0.0544910637036886 12.9326031878275423 255 255 255
-7.9849435648275211 -3.2399748133213184 15.0639891231446548 255 255 255
-8.1146091618678966 -3.0256004084389350 15.0430441235992571 255 255 255
4.8261127434651536 4.9214990820701559 13.4071636034694510 255 255 255
3.1846509388202127 2.1109419109864227 12.7326594708036502 255 255 255
-4.1045655024119627 -3.3036975056718774 14.1457453289948418 255 255 255
0.3581932160452432 -1.5107138115717660 13.0605715244582221 255 255 255
2.9622733386744082 3.0907981573944228 12.9390811311136282 255 255 255
4.4596188868432760 2.5460576768507601 13.2796657881325206 255 255 255
4.2557788971444594 4.7783063473292833 13.2418678762159079 255 255 255
2.3647305208132874 0.9982603074630377 12.8630163685106194 255 255 255
0.6962722170201108 1.0925568794367781 12.7233565422023318 255 255 255
-0.8721521502172946 1.3684560090414903 12.7712824127660785 255 255 255
-7.5315873104664828 -3.2236686212802854 15.1021858567137013 255 255 255
6.7756644195800888 4.2517034986182072 14.3150051110337539 255 255 255
-4.4329120154073536 2.0106773297626606 13.6229643290370372 255 255 255
4.8334742477659098 3.4430641767541812 13.5585918872800164 255 255 255
-0.9368658985986549 2.1349718498314121 12.6619025554951108 255 255 255
4.9094324114000738 2.3817858471687208 13.4032417933120982 255 255 255
0.3388238342128846 -2.9161892925430841 13.3758955638171741 255 255 255
-3.1920734148433692 -2.4952761556181344 14.1155731667811501 255 255 255
3.5369547800141894 -0.0851476344251491 13.0610264760161403 255 255 255
3.2293375411414642 -0.2236794795501452 13.3454543374821917 255 255 255
3.7647648569352148 3.9400140231080520 13.0547613783035441 255 255 255
1.0206527938108252 2.6446941431334192 12.3095726636080389 255 255 255
5.8629427681187085 4.1936100001614252 14.2981775128188193 255 255 255
2.7049561648323017 -1.6470876684072515 13.5462245102097594 255 255 255
-3.9543636049210527 -0.6403841487598202 13.2299512307337679 255 255 255
1.4605624018110679 0.9451648908351770 12.7648639747138759 255 255 255
3.1823707810687369 -0.4555267691946324 13.2761932825629092 255 255 255
-4.4168773104658809 2.5734078280180683 13.9210703932453885 255 255 255
4.1804265282267288 2.5397237842891607 13.1282923425835847 255 255 255
1.5606863030204103 2.4719502088032543 12.7483043836410168 255 255 255
2.8562802687014650 2.7040505514062061 12.7221932470633590 255 255 255
3.3324806766115995 3.3179961539174583 12.9542527450140419 255 255 255
-4.1180077502628478 3.4701129324876252 13.4875277643702827 255 255 255
-1.2059467025978343 3.5459332073077103 12.9534073768767417 255 255 255
4.9125218203682213 5.1377169252755319 13.6509632474939142 255 255 255
4.8892919072340577 5.2308023461922515 13.5696694262675290 255 255 255
-8.2536975269008739 -2.6095700210668626 15.2851574284036822 255 255 255
2.1785799320964743 2.2621283359637867 12.7268161243505151 255 255 255
-4.5384716563006720 -2.4596875054625671 14.1492750293006715 255 255 255
2.7401963721051521 2.8137261900505521 12.6222659264107477 255 255 255
5.5017740588631954 -2.9954036422731805 14.3130724652244332 255 255 255
6.2081842929075517 1.4142564316973958 14.2107068925304940 255 255 255
-2.0112938207199340 1.0621030086599339 12.1833700701787997 255 255 255
2.6504718865233481 0.7949707641744627 13.1442578859225385 255 255 255
-3.3631914328161949 -1.6044941208593078 14.2845594389655339 255 255 255
2.8851067704462352 1.6216269215036916 12.4243537770880828 255 255 255
3.4400137390642773 3.7885281563224007 12.9746008210209709 255 255 255
2.9226351591521254 4.7674075411970662 13.2087641240919798 255 255 255
5.2268848468969988 2.3250996194580233 13.6004529320914038 255 255 255
-1.1504029873781294 -0.7313790966312368 12.4274931476784882 255 255 255
-3.2136825509239992 0.0158619734439004 13.0373151470696591 255 255 255
1.9437441881688688 1.8631596684002547 12.8371821353682893 255 255 255
3.3226921335381236 4.9126552878338732 12.8350766318145233 255 255 255
-0.7367043107758460 -1.7781463498779386 12.9790064930555769 255 255 255
-3.7037663157069636 4.9160826972011051 13.1899216521750002 255 255 255
-3.0323260667120464 0.9904040684102559 13.4152602437644912 255 255 255
-5.2539376345838633 1.3507569130929031 14.3994973920944869 255 255 255
0.1980526717335118 -1.4157257188394243 12.1201464485538075 255 255 255
4.6800036267565623 3.8427192605349578 13.2195000931627362 255 255 255
3.3454679918447296 3.9823049752133777 12.9600014328973696 255 255 255
-4.3647912075629502 5.0107392063687914 13.8127943745399797 255 255 255
0.9009488951890612 -1.6628620125214360 13.1771945482732047 255 255 255
2.6851268572889877 5.0838665886732910 13.0875688662033589 255 255 255
1.6378653012416322 2.6257814984565595 12.9221626538369581 255 255 255
-7.0985297942442154 -3.5798881248055925 15.4535297687707232 255 255 255
-4.0916434476356489 3.1301990537168041 13.4296686690950313 255 255 255
2.7578475125345343 0.3812559515012836 12.9305439786969298 255 255 255
-1.1879850154895510 -1.2588690953108488 13.1722818962237334 255 255 255
5.9145875697239676 0.2020101315353409 13.9410038830140035 255 255 255
-0.8338025534058291 0.7343600302589547 12.6998405547518942 255 255 255
1.4729442416813183 1.8834451784405191 12.7338665728201885 255 255 255
0.3114756526575283 0.6494545746149553 12.6728191807613282 255 255 255
0.5346670449992379 0.9072614449689811 12.7364413589623542 255 255 255
1.2782234673637261 -1.2177582631468584 13.0548720618775445 255 255 255
7.0655209418156009 1.5585855185984809 14.6619235814691873 255 255 255
-4.2804526196957111 -2.1672820496772283 14.0253924663619607 255 255 255
2.3488512670099251 4.4842203057055956 12.6711551855595097 255 255 255
4.1144327922510522 3.2580701938323968 12.9810857310859138 255 255 255
1.9697813570436402 1.8751746403479235 12.9521779976454710 255 255 255
-0.6742159674057606 0.1955385940609265 0.5080206355581309 255 255 255
-4.3844945341957127 2.9168202269817383 13.5322336718430378 255 255 255
4.0644115612334177 4.6062582320787255 13.2417259521114712 255 255 255
1.3682955170868341 1.3623250527102273 12.8602618451479298 255 255 255
2.5612951304987286 1.6285871664925002 12.8591548947660623 255 255 255
2.0758903086246341 1.6770358543853199 12.6867942435942940 255 255 255
1.6242843926731740 4.6736429433871409 13.2513135822085459 255 255 255
2.5326892014354812 2.4539991225885074 12.7319506896612928 255 255 255
-4.4903528703311961 -3.2217067148959879 14.3586307472680907 255 255 255
-6.7743954805292024 -3.2399250544963465 14.8653763365421927 255 255 255
-4.0697984315060962 -3.2553638582153734 13.9780356732884634 255 255 255
-5.2272856509361745 -0.8483905386289543 14.2266643936926958 255 255 255
2.5350293425579977 0.1373450750637779 12.8161522889164470 255 255 255
2.7807176363707624 4.5622107893815773 12.9419644660141184 255 255 255
4.8112513309643798 4.9074430523843651 13.3653824382369386 255 255 255
1.4542041008956217 2.3348221450564335 12.6616702179878100 255 255 255
2.5159485834961357 2.0913846119316712 12.9841622376638028 255 255 255
-4.5036688907084290 2.2122182349329544 13.6780498987151944 255 255 255
-3.1073138971063168 -0.2036378680210450 13.4226710727652101 255 255 255
-0.9572923669083400 -2.2721625741294638 13.4810946997511518 255 255 255
2.7513059155149140 0.3822937894158988 12.8946499926923739 255 255 255
1.8917827980428852 1.6332780743997632 12.6712515843745805 255 255 255
3.4632873631019363 -0.5915604972211275 13.5663116211481327 255 255 255
-4.9214805401598483 -2.4220640576747030 14.3806933928676415 255 255 255
6.6103792065838389 -0.7206170503783136 14.1828201910946863 255 255 255
-0.9166244368616310 -0.3071383965837161 12.5527720098744666 255 255 255
-0.6830049178899479 1.2769178705632134 12.5947485802898100 255 255 255
5.9954861039166669 -1.0656966268388075 13.7218381886755978 255 255 255
-9.3406542688149141 -3.7026355123664043 15.9384815100013544 255 255 255
1.7792646251814010 0.1271377840758807 12.8970903264289696 255 255 255
2.6767960622048879 5.0755999891307404 13.0557565084886331 255 255 255
2.3484390008136495 2.6278785385926273 12.9436941899375402 255 255 255
-4.4023464322133261 2.9283569238032574 13.6040058150944052 255 255 255
3.1209697556270295 -0.1254167233011379 12.8083101698350923 255 255 255
-1.6304572960870689 1.8370287659124280 12.8673475903723098 255 255 255
-4.4376182014929775 -2.2774159507355041 14.6323208193716408 255 255 255
0.2172020889940576 1.1324956013839582 12.8310805041354161 255 255 255
3.8747703409031313 1.4456812875294840 11.8574387210846481 255 255 255
5.0087887904301773 4.5243993660181205 14.6189099405754259 255 255 255
-3.9034255001508043 -2.5954423352082920 12.1723788702456552 255 255 255
2.8147472173587835 2.4520365802692110 12.5692825902848853 255 255 255
3.8508104920074082 4.8421490459011194 13.2732220204377764 255 255 255
0.4687084976904626 -1.3914318914915849 13.0007197632367486 255 255 255
4.1812868389628637 5.3130868298633001 14.0944301449755844 255 255 255
2.2431368680331381 0.5234834645270695 12.8400542701933098 255 255 255
-0.2709545309130522 2.6654540216541966 12.5675719693609267 255 255 255
2.8421882726548509 1.2626841530131132 12.9402719549518128 255 255 255
2.6922192198504535 3.8741672075936395 12.8879133702821420 255 255 255
5.7442207372756480 -2.1781142353061127 13.8355163521180256 255 255 255
-8.8413516810537942 -3.5198212564964804 15.3015905038660964 255 255 255
-8.3938646441108098 -2.6596065510286140 15.5766308282232551 255 255 255
1.7150080608892515 0.9212575818941811 12.9822447386583839 255 255 255
7.2341258277407654 -1.6176781382203038 14.5486824842032849 255 255 255
-0.9328787102854108 -0.0373760831528167 12.6530268533212702 255 255 255
-1.8591333027840440 0.7687401148118986 12.6904086811247048 255 255 255
-8.0443532145851986 -1.3584581959164297 16.3564784235618141 255 255 255
2.2975882708460547 0.4606380968088484 13.1252765063805406 255 255 255
-8.0665453830649216 4.2817467259790201 15.0480310832025097 255 255 255
1.6827745560841803 0.0901242535759140 13.0085237080422456 255 255 255
-6.3784445953928346 -2.8280863030808345 14.1630141578257280 255 255 255
1.2531497847408946 0.9183744149470265 12.6645508997170388 255 255 255
-4.5925955923076902 5.0281321787406403 15.2782785527628704 255 255 255
6.6460571024876272 3.9065759207662754 14.1514149225357002 255 255 255
6.0541950339049944 0.1775731374330097 13.6195292337880733 255 255 255
1.9973899716240353 0.1240882724395725 13.0392933814382399 255 255 255
-1.9311215045221743 -0.0941755243850385 12.9541309308289296 255 255 255
1.5278533128132248 0.5611687147912738 12.9574245382375413 255 255 255
1.1781080770795798 1.3698416152648367 12.5211194338576632 255 255 255
6.3540593523968916 -0.8934452075486260 14.1744154625362704 255 255 255
0.7111093694374524 1.1034685568861895 12.8991840276558758 255 255 255
6.1388331684777375 -1.3216698201174348 14.4356950971716795 255 255 255
-0.4539173394681492 0.3622336609961251 1.4312234274976157 255 255 255
2.5734648569532155 2.0690410445963137 12.5273370686607368 255 255 255
3.2885245241019105 3.2822691254045697 12.7921887976525888 255 255 255
5.8583413352012119 -0.8184844242291933 13.6718030949728604 255 255 255
1.8513720457039831 0.8679150578808591 13.0809331908161575 255 255 255
0.7750305123232539 0.3307152095813967 12.7186593254397806 255 255 255
-4.7843834371271372 -0.6027879682872275 14.1124737132735145 255 255 255
0.5775983254941445 0.8227199691698104 2.8269409263486822 255 255 255
1.6660352309198325 -2.5660911703977645 13.1317736074997935 255 255 255
5.5397276514997591 -0.7823166432836078 12.6618199165883496 255 255 255
-1.6445759071335042 0.7929811588548696 13.1678385628676207 255 255 255
1.5111720863876503 0.5512164784472081 12.8546185256960523 255 255 255
1.6270228344310285 0.8969176496662181 12.5537905074015939 255 255 255
10.6449377699308716 -2.2266713661940538 23.5713640926253305 255 255 255
3.1691552553904412 4.7066248047813355 12.9810665578226594 255 255 255
6.0738287318845678 0.1740473240798373 13.6551438811582582 255 255 255
1.0272394755221657 5.2623576399156544 13.7332411301553279 255 255 255
3.4396800024221172 4.2361305866952286 12.8660624027922434 255 255 255
-4.4295376479454305 2.8734973589645638 13.6910168645460821 255 255 255
3.6810417647349993 -0.4915008348125540 12.8095184695693369 255 255 255
6.1886552568611322 -1.8235081804910012 14.4404582372388806 255 255 255
1.2531497847408946 0.9183744149470265 12.6645508997170388 255 255 255
0.7073108842253535 1.0999668695716553 12.8326342930887254 255 255 255
3.9910143448505369 -0.5361749332102603 13.7145159110340522 255 255 255
1.7438941490718212 0.1208726891884121 12.7356025995639754 255 255 255
-4.6534864340847033 -3.0701078617958770 14.5374469901818166 255 255 255
5.7188233986153723 -0.8046011295165859 13.3960963195583389 255 255 255
-3.8316024583715462 5.1069554120935896 13.7023425372704661 255 255 255
2.5555457246711568 -0.3548538618327058 13.5976930790435375 255 255 255
-9.6951423826826222 -3.6816649511121535 16.2628583653068191 255 255 255
-0.9384538666297370 -0.0365465573992594 12.3694265925248974 255 255 255
1.9272735049604428 0.3530175963468485 12.9245891957801451 255 255 255
1.8728221026938514 0.3426908198202896 12.6802631472796143 255 255 255
2.4841612985939951 -0.3438603126732612 13.3334901633488982 255 255 255
-4.4112572026798418 2.4474206785679158 13.3400536609397058 255 255 255
6.0232301126605199 -0.8431582858635671 14.0385585011007787 255 255 255
-4.2214181396073673 -2.1657937237827447 13.9014224610861241 255 255 255
2.5243467185702961 -0.3521686198507693 13.3918402664746719 255 255 255
-4.6892380177630768 -3.0806417197051181 14.6252368357226654 255 255 255
2.0836513779101855 1.6802445970982463 12.7327016987990422 255 255 255
4.7535343451998369 2.3219598116674445 12.9608467014913007 255 255 255
-7.6823817372397425 -2.3392722670745845 15.2038073341937476 255 255 255
1.9214615958033567 1.8361255441304802 12.7016496501688678 255 255 255
6.0788959842608756 -1.3172521307076253 14.2939365015918014 255 255 255
3.1815300799375650 4.7030599077544775 13.0159020282988926 255 255 255
5.9726262181206220 1.3491215404123358 13.6809482044964685 255 255 255
3.2304978729709326 4.7537012248995456 13.1774466965979595 255 255 255
3.9595952051315106 2.6128980750103930 10.0600071009756711 255 255 255
0.7045249408819289 1.0999049010004762 12.7873820158269140 255 255 255
5.9877148444371109 -1.2975735955364516 14.0821154438985960 255 255 255
1.9163749886574486 0.3481198196246059 12.8638488267038849 255 255 255
1.4786125179255081 0.5462830856882366 12.6541293770569094 255 255 255
-4.4173796895250383 2.8688292988512303 13.6641614992264149 255 255 255
1.4114065002655161 1.6195210974567968 12.6132332082624874 255 255 255
-4.7201280924485118 -3.1158343435800080 14.7545537431121225 255 255 255
-0.9925139217792606 3.6609780532431722 12.8104320538801471 255 255 255
3.1857022652512508 4.7060076658905112 13.0202643236056481 255 255 255
-4.5862299863567131 -0.5707739278495378 13.4250699529753970 255 255 255
2.4537617626072330 -0.3396727611692853 13.1223043028109014 255 255 255
1.5178304931472297 0.5487676275040059 12.8454231059750104 255 255 255
