ply
format ascii 1.0
element vertex 582
property double x
property double y
property double z
property uchar red
property uchar green
property uchar blue
end_header
0.7596543459407200 0.3047908511429331 0.6523896220484555 0 255 0
0.6496486014009724 0.3529275739023122 0.6498581499206000 0 255 0
0.5730836324913461 0.3877623671094037 0.6500005022646747 0 255 0
0.5170720324313700 0.4339639877613339 0.6510150704671596 0 255 0
0.4695241467867855 0.4274180931616068 0.6574793148062282 0 255 0
0.4066824624998099 0.4480163127819757 0.6586346246185854 0 255 0
0.3349326052991510 0.4581726043239307 0.6538230435191527 0 255 0
0.2459214428929596 0.4914569118301988 0.6476826637685899 0 255 0
0.1757609021437941 0.5155527359147252 0.6526087500785714 0 255 0
0.1037946040116523 0.5272896365923819 0.6623467335775388 0 255 0
0.0257078917409780 0.4842951412565749 0.6655292705102499 0 255 0
-0.0563190143290041 0.4490477886729942 0.6692717761969124 0 255 0
-0.1336706540793517 0.4122394403311860 0.6681059268150449 0 255 0
-0.2058389790082411 0.4058425756352073 0.6640535652153067 0 255 0
-0.3219426910425808 0.4348429933877608 0.6622400515443262 0 255 0
-0.3909261622280960 0.4508131115755789 0.6704259786770120 0 255 0
-0.4737715296306923 0.4461006049730609 0.6732993507783963 0 255 0
-0.5641196367376413 0.4585487824520544 0.6698446150741028 0 255 0
-0.6447362099024228 0.5016594796896423 0.6719482473287288 0 255 0
-0.7060820731781360 0.5161723585194851 0.6776773821322516 0 255 0
-0.7660204369755902 0.5029986619408993 0.6806395772440283 0 255 0
-0.8446041660789444 0.5185516171083505 0.6759079728262972 0 255 0
-0.9158300918992736 0.5422396365876400 0.6761251946421131 0 255 0
-0.9595023461154678 0.5501436531364294 0.6808751262500152 0 255 0
-1.0126295452129246 0.5516328589323878 0.6868402031994224 0 255 0
-1.0433099510600445 0.5407662767491553 0.6877124286690203 0 255 0
-1.0818962397726368 0.5293383265184015 0.6894359543591065 0 255 0
-1.1310231573115270 0.5497537631372552 0.6891765368596946 0 255 0
-1.1531732644183896 0.5162008056958334 0.6890632029536401 0 255 0
-1.1724815497137171 0.5022489005924879 0.6906167374744213 0 255 0
-1.1963121016161584 0.5008543042872264 0.6916247193996393 0 255 0
-1.2344031268483000 0.5237716688603887 0.6873158673221891 0 255 0
-1.2578380090339503 0.5357770005754275 0.6982356061760100 0 255 0
-1.2911951781460349 0.5231957540314597 0.7040964318358446 0 255 0
-1.3356634335299067 0.5310893413665368 0.7046867089791781 0 255 0
-1.3695860226726286 0.5509165707047918 0.7033241743247971 0 255 0
-1.4001295107258225 0.5559437376016622 0.7039736767971445 0 255 0
-1.4224276985340916 0.5677053569607459 0.7069552415833719 0 255 0
-1.4575611435716629 0.5878996164611640 0.7078510204293890 0 255 0
-1.4503570733753941 0.5941291221217834 0.7075200785487940 0 255 0
-1.4589015419046178 0.5951520035815667 0.7101459682051767 0 255 0
-1.4823442746050357 0.5948061893528257 0.7126356886603129 0 255 0
-1.4948949172515726 0.6067363351231237 0.7122848488743877 0 255 0
-1.5104845988474598 0.6211010451819304 0.7134240780923814 0 255 0
-1.5607710159071249 0.6383087458304130 0.7150900284691859 0 255 0
-1.6314440176907032 0.6632027072271289 0.7201929927073324 0 255 0
-1.7207212951750011 0.6968450478224807 0.7261274405433181 0 255 0
-1.7922008277138510 0.7179872881578494 0.7296624009571598 0 255 0
-1.8630778768292138 0.7233913010697325 0.7298818646498054 0 255 0
-1.9281326949754833 0.7381961394810159 0.7312473524000517 0 255 0
-1.9792384697980012 0.7444863899223945 0.7308058109390836 0 255 0
-1.9922076693079229 0.7462296476140274 0.7341921229436773 0 255 0
-2.0160253562460353 0.7558278786894150 0.7384990732608570 0 255 0
-2.0449491134964761 0.7290273170745605 0.7464234337935848 0 255 0
-2.1006990655862792 0.6825823142573119 0.7541731758067669 0 255 0
-2.1817532324505891 0.6657861106074636 0.7537894753130880 0 255 0
-2.2600219901617691 0.6597504864476470 0.7601992859167279 0 255 0
-2.3623604359731361 0.6896278740943573 0.7670486558201682 0 255 0
-2.4476566767309760 0.6395447206870404 0.7795842987195590 0 255 0
-2.5136442745967091 0.5678224948045471 0.7913480119748735 0 255 0
-2.6078719469552292 0.4992069816959038 0.7913660864388965 0 255 0
-2.7053900416179886 0.4709372626372285 0.7895636828193928 0 255 0
-2.8024378682758417 0.4740919554274948 0.8012924191549150 0 255 0
-3.0358506166264774 0.4295294456223162 0.8276423082257675 0 255 0
-3.1846425918478745 0.3940809154728761 0.8326790089415531 0 255 0
-3.3202062723706796 0.4009079663971500 0.8455175276568981 0 255 0
-3.6619221182250365 0.3877478712132523 0.8670332080900069 0 255 0
1.1008255020510898 0.2756520741424008 0.6557318450808244 0 255 0
2.8736759645150811 -1.1617550147536397 11.9984461075851527 255 255 255
2.7700885096901380 4.8743713436850555 11.9537389161311687 255 255 255
-1.1099649217916543 -0.5383873302333610 11.6991230772619321 255 255 255
-7.7658332445098228 -4.4021578790069027 14.2628148149964957 255 255 255
0.9601417759647444 -0.5265703475260202 11.9415466382741862 255 255 255
-2.0603435342417433 2.2864159877397627 11.8083987016209733 255 255 255
-7.4237489919306565 -4.2254406908836843 13.9877994031345825 255 255 255
-5.2537444975640497 2.4753043355941200 12.4146637487026403 255 255 255
-7.3667065982023443 -4.0654585934225294 13.9832399678022874 255 255 255
1.3830034112686431 -0.0700503324069413 11.7718902342140801 255 255 255
-5.2080107337887060 2.6850640205225016 12.3972209918395038 255 255 255
-9.2768016569884661 -3.9728828498708677 14.7075552538128651 255 255 255
-5.1092688074370995 2.6947182290122074 12.4575355667890744 255 255 255
0.5001300681271993 -2.7000973858716710 12.0820473806695272 255 255 255
-4.6950114347287926 2.7445794652356761 12.2553262364654092 255 255 255
7.0415563073230114 -2.8428324974786929 13.4420492928787354 255 255 255
7.7002225640140383 2.8626200367199526 13.4396857400680805 255 255 255
-4.8021359674755804 2.9399979158272052 12.4176891024819298 255 255 255
-1.6997787092135108 -2.2370662280201383 11.9968813751955032 255 255 255
-5.2461537748193132 -3.7250916655355866 13.1715063447870868 255 255 255
2.0199001485891541 0.2951589518642396 11.7409835124056166 255 255 255
-0.4750098004674499 -2.9901607875979339 12.1937258041847976 255 255 255
-0.4958277809836756 -2.0475534844721586 11.8790682775947616 255 255 255
1.8260338308588382 -3.6200174489890746 12.3890209752682079 255 255 255
2.1620998572070684 0.4739672835281510 11.7354580048751700 255 255 255
2.8934583546181769 2.8404676403381406 11.8454658763123550 255 255 255
0.6340511963899229 0.5045512541929703 11.6191563858338629 255 255 255
1.5609694421818008 0.5873242044783205 11.6868135422003725 255 255 255
1.4570741176853856 3.2943881005201905 11.8242358598546442 255 255 255
-1.5538442024050811 -1.8721673231742857 11.9447724303069229 255 255 255
2.3792740045930616 3.4797272111316553 11.8732265876960437 255 255 255
5.0656939400535181 3.5357122083275940 12.2714274239619670 255 255 255
1.6456723574351473 0.7588861519790053 11.6919913226952712 255 255 255
-1.5121244867935817 -1.4378383555666576 11.8712496969923844 255 255 255
-1.6262064666261706 0.9003315969960012 11.7520280088047162 255 255 255
-1.3620361325377794 -1.3359713169659351 11.8578094785310704 255 255 255
3.1017266521129998 0.7870317796853139 11.7361608748252770 255 255 255
-0.3365534035611097 -0.8200995607125303 11.7230428980453638 255 255 255
2.0475149263750416 -0.7180869841794736 11.8256568749516244 255 255 255
1.6186222854410102 -0.3969140615954119 11.7349577208436742 255 255 255
8.3105890891626615 4.1043624746478411 13.7463400896701771 255 255 255
3.0849683216964383 3.8300255700077135 11.9189797976029119 255 255 255
3.7810392300718765 4.2744004084934266 12.1124256411792182 255 255 255
-5.0998442073952361 4.6289491621468990 12.6620636558470334 255 255 255
2.2219752913587860 1.3375318041907478 11.7419283899491056 255 255 255
0.0822733346045046 4.3844578093812352 11.7915752251676302 255 255 255
-1.6108041336526664 1.1407800762848617 11.7260087864713789 255 255 255
2.8049978151784281 4.4174838963333745 11.9933890593474199 255 255 255
1.5127674167090446 1.1789296059313437 11.6725452100651630 255 255 255
3.1500546117418633 1.7283597634989361 11.7075324910235796 255 255 255
-1.3773206842115564 1.2118183269477876 11.6300158577289050 255 255 255
-5.3317867920266186 2.0241435290469583 12.4026374976588460 255 255 255
6.4272207223303850 -2.4276091013799217 13.2382449356888277 255 255 255
2.9088461707566262 1.7092943882686304 11.7199281652896321 255 255 255
-1.2705449207837103 -2.0445713962670058 11.9766212949045716 255 255 255
-1.8699299219136818 -1.7451589318542651 12.0499480887198445 255 255 255
-7.5412315587216856 -1.6700106669326946 13.4823191205006481 255 255 255
-4.7183713060520258 2.4065794053315681 12.2272388261299660 255 255 255
6.3772394809233210 -1.6707080454043557 12.6739682143730761 255 255 255
3.3478494643007468 -1.1784577362489386 12.1896263368195008 255 255 255
8.0654377890320408 4.2167236168132973 13.5305779559758328 255 255 255
-3.8140818140883241 -0.9118139938053040 12.1812897542121750 255 255 255
-0.2190318571560878 -3.0356396030344439 12.1819127861491889 255 255 255
-9.1421639699449244 -3.0586018522244656 14.4880724837977066 255 255 255
-0.9574481495362724 -2.8088017396857117 12.1629159894288428 255 255 255
-1.3956380690451378 -1.8070406842295632 11.8976168547171017 255 255 255
-5.6545826247816731 -1.6159199083150888 12.7321677092833880 255 255 255
4.0340642878832211 -1.3361134343900005 12.4312060509512072 255 255 255
1.8765101494502885 2.0480342312517688 11.7106782796930329 255 255 255
-5.5250287105211111 2.3088555399223991 12.5021423956740065 255 255 255
-5.8827902116390884 2.4599952039889530 12.5978512153288147 255 255 255
2.4797796994670822 2.4772942214667268 11.8423235918071583 255 255 255
-5.2848499169661673 2.9224155127120417 12.5446579229259587 255 255 255
7.1587922758369045 3.0082037006965145 13.0278167058624010 255 255 255
7.1673885358913729 3.3792865520560866 13.0341056695745134 255 255 255
2.2916760521707173 3.3213848435947848 11.8346834565626207 255 255 255
1.8215565130707301 -0.3135322750369610 11.7524379695208285 255 255 255
-5.3031986225182131 3.6198799919163229 12.5513148274133055 255 255 255
2.7075576627684770 3.4691637151284631 11.9207898532163110 255 255 255
2.6011179039508394 -0.2985359586874565 11.8680769857255708 255 255 255
2.3708423848675606 -0.0920174420727408 11.8216859861723744 255 255 255
3.0479521767020374 4.4701888715653570 12.0385030060886162 255 255 255
0.5150685144970787 0.2808807040446804 11.7571340643299500 255 255 255
-5.2439846979157823 5.0733281033843864 12.7894422073273066 255 255 255
-2.0542876751834975 0.4391659823360551 11.7785725379751050 255 255 255
-1.5013761790677143 0.5936833847702441 11.6904177152683619 255 255 255
0.8877693479792673 0.7048833134806440 11.7199434132454794 255 255 255
6.1657621624470291 -3.8336478258997424 13.5517171253755677 255 255 255
2.9174541675850416 0.7301952191162484 11.9127831744089878 255 255 255
2.8952998849317164 0.7246768573105333 11.8441841873707840 255 255 255
6.1434641266662178 -3.8103991549716714 13.4866969773579335 255 255 255
1.0958440193887904 1.2824218434380459 11.5307052814999391 255 255 255
-1.9894811286486240 1.1096634420556235 11.7563821485697968 255 255 255
-6.0026917318235951 1.4534460457573588 12.7065368526290552 255 255 255
1.3632332532992517 1.4684509175966449 11.7182431626858499 255 255 255
3.2852171279442115 1.5565486968000404 11.6777688626713783 255 255 255
1.3938976284007540 1.6702409695143787 11.6738444168916864 255 255 255
7.4472912992164657 -4.3403166718252546 14.2393448686576765 255 255 255
-5.4695919926257774 2.6882951433480606 12.4180450702098959 255 255 255
4.1121170468308081 2.8537603457524079 11.9909603008776298 255 255 255
7.5141973518618306 -4.0491091189403283 14.2217050980663267 255 255 255
6.7981052171526519 -2.0443285838629301 13.2177853061408630 255 255 255
4.4913653764469901 2.9615439586014412 12.0717190466793483 255 255 255
-4.1771606148582130 -3.6770904524384638 12.8818696273612883 255 255 255
-5.0763258089134533 -3.4922558507354871 13.1263286241634418 255 255 255
2.5451187565911262 0.0762569938624422 11.8397655272304405 255 255 255
-9.0531626287446922 -3.4148074569221412 14.4619033857639820 255 255 255
3.0171285898359050 1.0862930984409289 11.6139166276230412 255 255 255
7.2285441650581062 -1.8629924981069415 13.4892515712058341 255 255 255
1.2283225547770540 -1.0187718875883125 11.7917505042585216 255 255 255
0.2640037837878684 -3.0244523397264369 12.2036820180452423 255 255 255
1.9604279933480959 -0.5777253634625448 11.8124702158856199 255 255 255
3.4014777045705054 3.9295806140272793 12.0348811639049984 255 255 255
-5.9977003164084639 2.0217222439927824 12.6320288341314484 255 255 255
3.0508648460069336 -0.5896169361466075 11.9883397739761470 255 255 255
-0.5341848469822120 4.6527689711735487 11.8110305657563561 255 255 255
-0.5903217813448958 -2.8600181433313137 12.0795199708203409 255 255 255
-1.2210724473637535 4.7153041671675178 11.8801799528833403 255 255 255
6.9666847698449139 3.5393278652718112 13.0102921652634826 255 255 255
0.9733462343900070 -0.1187464891373820 11.7262981456734305 255 255 255
2.4108258338357746 -1.1023352669210678 12.0009544959210448 255 255 255
7.5694030636800376 3.9970150653533167 13.2834797336295871 255 255 255
-0.2492528242099578 -2.4002114820315525 11.9524324214644118 255 255 255
-6.0529175479842818 1.0976427492883427 12.6985106816072157 255 255 255
3.2411485136048364 2.2721746070522495 11.6171388593620168 255 255 255
2.5770975815679509 3.8010921787517260 11.7996621486771929 255 255 255
3.5259230756467530 3.2178815501601483 12.0022325567479502 255 255 255
6.4365986754731530 0.7646941185739037 12.8926134348702561 255 255 255
6.5436184200574186 3.3384519406810709 13.2096437414319663 255 255 255
0.4073917885122172 -0.1410757808581874 11.6852053854071087 255 255 255
0.8704940547095725 -2.8974418016594914 12.1669275696774193 255 255 255
-2.3045269583160271 0.8820450284076732 11.7719570480258522 255 255 255
-1.6634617544103238 0.3125257956620551 11.7485594953523638 255 255 255
5.6158824589360670 2.4022670147609864 12.3638840863592989 255 255 255
-1.7371159979045507 3.1339007125806218 11.7993278574407565 255 255 255
4.2623134494601542 2.3323299847566181 11.9797811993032468 255 255 255
6.4436277750488609 4.4303394644358809 13.0581074837562614 255 255 255
-4.7029360193467102 -2.0650218166433634 12.6827730723045438 255 255 255
-4.6135044059210042 -0.1228360516591752 12.4059748875318139 255 255 255
1.9072669378529166 4.0652085260980204 11.8311381134206712 255 255 255
-7.8400159780277292 1.6927192443002965 13.5884651377494805 255 255 255
2.1164614400587727 1.4830171136609025 11.7178042377665399 255 255 255
-7.4547740499946062 -4.4372438305530748 14.2382404311593085 255 255 255
1.6361394904279645 -0.7563563730756291 11.7028958155498355 255 255 255
-8.8026315637207713 -4.0800813985441771 14.4368950972492645 255 255 255
-9.0349587396376894 -3.8955438166126699 14.5611300621487114 255 255 255
5.1630885663714787 4.8697770159898379 12.5371878522448785 255 255 255
3.3169271100110622 1.7167040786389922 11.7033044366532319 255 255 255
-4.8992570272500728 -4.3168298249584369 13.2495832464554653 255 255 255
-5.2725104197514341 2.7136888601057123 12.5319494330370365 255 255 255
0.0362312355564490 -2.3964334971244052 12.0108774209140243 255 255 255
3.0714366179426529 2.8326300707971841 11.9176014530790066 255 255 255
-1.9724462228686737 -2.0398586185652565 12.2315320820366029 255 255 255
4.6525010794988209 2.1427826262225138 12.0915397594142142 255 255 255
4.5385971516137893 4.7180300693386394 12.3444147237397033 255 255 255
2.3682595602413850 0.4355154449759907 11.8411168851299546 255 255 255
0.4620337932229731 0.5605431432677510 11.6792339231804654 255 255 255
-1.3244030433480656 0.8681784391456446 11.6301670455757034 255 255 255
-8.2945893224165861 -4.0485188045362221 14.2316531936307555 255 255 255
7.0707219588725527 3.8908859082612324 13.1173188010043962 255 255 255
-5.2800801839992495 1.5410650971472371 12.4209390185764796 255 255 255
7.5694030636800376 3.9970150653533167 13.2834797336295871 255 255 255
5.0198539967418130 3.0913923171375899 12.2619540057123526 255 255 255
-1.4019988787578803 1.7631629653988095 11.6197406454615066 255 255 255
5.1678914837183978 1.9387277600086634 12.3323503147788838 255 255 255
4.9167904091231263 2.1514003048191657 12.0415448873393327 255 255 255
-4.5044739289283049 4.8357347623250169 12.1812995958626260 255 255 255
-0.0026625454051460 -3.9882306581295648 12.4571690153515338 255 255 255
-3.8718291409682819 -3.4227568775051047 12.8236865895855754 255 255 255
3.6558012303883873 -0.8196513198900693 12.0686241964713474 255 255 255
3.2493576111379272 -0.9806201961594561 12.1305619708902199 255 255 255
3.9594640305102775 3.7867672145061508 12.0477011497329602 255 255 255
0.9056452289859744 2.4232316560062008 11.5933980091563971 255 255 255
6.1301377441874791 3.8576662336015617 13.0219860802088281 255 255 255
2.6419132066933186 -2.5885264352920108 12.4359444818905622 255 255 255
-4.7634898086848736 -1.3786117773256721 12.2515930175462575 255 255 255
1.3292771485200325 0.3765342978863744 11.6911956906930250 255 255 255
3.2254749602576589 -1.2429778127269722 12.1688220319060729 255 255 255
-5.2327709607664028 2.1142756018731341 12.5372053658813805 255 255 255
4.4047317970173063 2.1566779499788087 12.0604195623506207 255 255 255
1.4577810888729543 2.1324475717241671 11.6437238139470480 255 255 255
2.9571587586784394 2.3987670355884032 11.7189155372629141 255 255 255
3.4498239862630489 3.0576465393101682 11.8129544049495330 255 255 255
-4.9561986635857158 3.1857663514309569 12.3670567956894750 255 255 255
-1.7103543153061811 3.3565756858552054 11.8674047281209223 255 255 255
5.1369790800092394 4.9960367965460177 12.5136905886722918 255 255 255
5.1785873777543641 5.1687867740489235 12.6101283655556937 255 255 255
-9.0239884879533161 -3.4143936834686173 14.4290616313543048 255 255 255
2.1775605825608153 1.8958482778676076 11.7108138778676256 255 255 255
-5.3272337800193208 -3.3531927395678562 13.0471295809713066 255 255 255
2.8555339416740249 2.5510706999909645 11.7167577637072604 255 255 255
5.6456149095877688 -4.0997679679627828 13.4244481976211532 255 255 255
6.4855602546733975 0.7800390200517613 12.9949059110042775 255 255 255
-2.6737067289292562 0.5933308642839565 11.5446318257969143 255 255 255
2.6168913848085396 0.1861620290812308 11.8438026599895654 255 255 255
-4.0065555915469186 -2.4430177502400960 12.6963807891498526 255 255 255
3.0322638136466189 1.1868436428311973 11.5923038781396741 255 255 255
3.6086350997795464 3.6168790761064455 11.9731964935801809 255 255 255
2.9764033711193529 4.6924193438717072 12.0765267973265420 255 255 255
5.4678527757460822 1.8506683197751994 12.3938374009747072 255 255 255
-1.6718204329001283 -1.5314768513431825 11.8548688641195277 255 255 255
-3.9901829199181678 -0.6626106635133039 12.0956966553238896 255 255 255
1.8992139150292318 1.4259431579294402 11.7793983565321021 255 255 255
3.4995107030453436 4.9503027430830269 11.9744629440320445 255 255 255
-1.2163561709816353 -2.7087979314354200 12.1498130229967476 255 255 255
-8.9735051316501533 -3.3929805051320145 14.3641714499015496 255 255 255
-4.6142890669112102 4.9561060451696495 12.5058498194275831 255 255 255
-3.7290709026743625 0.4168268680859166 12.0837210112654478 255 255 255
-2.3381733850737523 0.2133720335544087 11.3150979015147399 255 255 255
-6.0377947100950875 0.7383184363911676 12.8760838931491630 255 255 255
-0.0687081973410935 -2.3991845164068608 11.9142678548966234 255 255 255
4.9673000892835235 3.6327406451617170 12.2247923981782609 255 255 255
2.8481774053787112 0.7166346366270815 11.6235941584110414 255 255 255
3.5002638414069596 3.8457784117616112 11.9581317921931518 255 255 255
-5.2320105861994168 4.8754967087612862 12.7408032493472572 255 255 255
0.6539243913977461 -2.5864210029957944 12.1117265998844541 255 255 255
2.7305489558078881 5.0820321145009189 12.0423975601082578 255 255 255
1.5326178823452894 2.2857198540635117 11.7577105997895703 255 255 255
-7.6984222573632843 -4.3583920630076811 14.1472266897152092 255 255 255
-4.9277605980060084 2.8050733853245466 12.3200825532579010 255 255 255
2.7951355454559081 -0.2723927898955412 11.8798070361756416 255 255 255
-1.7039824710029254 -2.1070125545196032 12.0853075472911424 255 255 255
6.1724144689805884 -0.5403108815727390 12.8176485698227189 255 255 255
-1.2946733694746577 0.1594110063237050 11.7138661336901322 255 255 255
-1.8306235362830645 1.1403102230802635 11.7476188790564819 255 255 255
1.3592165596592409 1.4652246136616658 11.6981576644800871 255 255 255
0.0217591910127664 0.0584779301202968 11.6537322643921257 255 255 255
0.2793111271721477 0.3474352840361247 11.6459967186219462 255 255 255
1.0918099974809006 -2.0837842831129771 12.0657314716306967 255 255 255
7.1117391172449844 0.8729379774331196 13.0139325005415785 255 255 255
-5.0767044379440378 -3.0694770863918563 12.9451141625521551 255 255 255
2.4024211585284441 4.4996648459244666 11.8129552969079015 255 255 255
4.3620665388534539 3.0024721225959028 11.9962278988189706 255 255 255
1.8906768777095180 1.4226345733979178 11.7398159240282052 255 255 255
-0.5009263538330851 0.6208116150434795 1.2251217218503712 255 255 255
-5.2393369220736554 2.5518367775054429 12.3850966966837639 255 255 255
4.3262601528092723 4.5349246789592064 12.3218429122088153 255 255 255
1.2192609372204479 0.8526858618226131 11.7128999875486137 255 255 255
2.5923504682332807 1.1515891059606274 11.7900579380316142 255 255 255
2.0611247343000283 1.2263134625088543 11.7060881681180344 255 255 255
7.5419697851889911 -2.1254265083164934 13.5466877399715244 255 255 255
1.5445138089244101 4.6805524480774565 12.2887523662363680 255 255 255
2.5883328003334274 2.1196561251084303 11.7350189328494334 255 255 255
-5.2684144842344809 -4.1952412679574440 13.3517979193632410 255 255 255
-7.6006852042179629 -4.1274682580313051 14.0287110169135154 255 255 255
-4.8285276035913300 -4.2621928992172924 13.0824016104093328 255 255 255
-0.5367511655174869 -0.8445210982408118 12.0091096907117443 255 255 255
-6.0015305806904138 -1.6026456574454311 12.8709953498084175 255 255 255
2.5252142463032610 -0.5295488257695542 11.6638361168762330 255 255 255
2.8623006431603177 4.5248149543144942 11.9561383954874891 255 255 255
5.1566086548739571 4.8641622558935591 12.5216321850925123 255 255 255
1.3450563697225324 2.0031652767796140 11.6474441482354401 255 255 255
2.5214251538056209 1.6634604423181076 11.8332051613227449 255 255 255
-5.3524604629976062 1.7488560505662063 12.4706626326994421 255 255 255
-3.8132313736316168 -0.9113934131806184 12.1772367477005261 255 255 255
-1.5209261643089647 -3.4769227759982479 13.1220935792904783 255 255 255
2.7968071486955663 -0.2733834481000064 11.8750950402707627 255 255 255
5.3264967099857206 4.6481106593960240 12.7196548015397273 255 255 255
-0.1512915969402007 -0.2955073765099835 11.6484084640691687 255 255 255
-4.9597161900167306 0.3198948108355749 12.3509619477040893 255 255 255
1.8525535913841387 1.1779591466310892 11.6978923682481337 255 255 255
3.4879432111577500 -1.4002094556356044 12.3061681433473016 255 255 255
-5.7187636632149124 -3.3169741831040880 13.2352532055356757 255 255 255
6.9446479533928214 -1.5928775475575438 13.2519942553862684 255 255 255
-1.3770196087362223 -0.9977224011944821 11.4828003105202061 255 255 255
-1.1136030623556554 0.7890894446400012 11.5983882127379463 255 255 255
6.4591607213061222 -2.0104183970933978 13.1608204813320242 255 255 255
-9.8469891817074640 -4.4136804902304583 15.0293666957480010 255 255 255
1.6696570590851871 -0.5603221925597455 11.7909583931693138 255 255 255
0.2777003864710583 -2.5685898281841784 11.9533584178358012 255 255 255
2.7246743286679238 5.0865867275723735 12.0287416960508580 255 255 255
2.3346985921015668 2.2817219223603580 11.7801927642101454 255 255 255
-5.2526213491116831 2.5577406973521759 12.4208694706928640 255 255 255
3.2546577129458836 -0.8540974968757395 11.9427425113495129 255 255 255
-2.1976031275084535 1.4086292673540777 11.7829364575893578 255 255 255
-2.0039632108452219 3.4995803733334911 11.9038472800051025 255 255 255
-5.1533985536704607 -3.1423946305475390 13.1683717562957856 255 255 255
2.7783853033116901 -0.4989913274771000 12.0618033766827288 255 255 255
-0.0937665362816979 0.5943571804407259 11.7953960091280887 255 255 255
4.4542089916237124 1.0780461797489682 11.7157073682953818 255 255 255
5.1846881646840135 4.2267300985563612 13.2244020542481664 255 255 255
-4.9332524193545026 -3.6620944116205210 12.3136060039989985 255 255 255
2.9454393595360258 2.1532597117497461 11.7146304436116466 255 255 255
4.0241486130468633 4.7608227386163220 12.2058028479304053 255 255 255
0.1761917627137768 -2.2703025005706081 11.9974958735112534 255 255 255
4.3929162475570678 5.2233703200579447 13.0280914383116393 255 255 255
-0.1566067903218802 -0.2925937708294234 11.6423334255373430 255 255 255
2.2140195327920118 -0.1074885897892327 11.7717771926091554 255 255 255
-0.6323813327650731 2.3942797955105872 11.5934392183852797 255 255 255
2.6330393151240807 0.4075446402704876 11.8380568458183362 255 255 255
2.8965118462716424 0.7252529610316283 11.8466945675194282 255 255 255
2.7695405717068127 3.7404303800814525 11.8922061660198768 255 255 255
6.1196734527612984 -3.2494525254849673 13.3020444740364372 255 255 255
-9.5347672237798538 -4.2861803481923362 14.7152897474799129 255 255 255
-9.0808768967092153 -3.4208274031543109 14.5110698967831606 255 255 255
1.5863808376029023 0.3397945804848890 11.7972420809495180 255 255 255
7.5135326835389211 -2.5691517285857643 13.6589768239693363 255 255 255
-1.4004100478735657 -0.7137709881692872 11.6747176001793971 255 255 255
-2.4373375530109231 0.2180000034740999 11.5866112212694539 255 255 255
-8.5563147964061379 -2.1079566527738076 14.3603575356377480 255 255 255
2.2570198835768949 -0.2018261365221657 12.0042521505266411 255 255 255
1.7048790283893738 2.0727395626429730 11.6991774329560556 255 255 255
-5.2700955069038997 2.4806484192165206 12.4467726886082453 255 255 255
4.8467841961920506 3.2787395032763778 12.2333679098069652 255 255 255
-8.9913808881862654 3.8343270021325129 14.0354319107361523 255 255 255
1.5557989955983054 -0.6054728505896334 11.8744998320654300 255 255 255
1.9939496820993852 -3.6981882948735945 11.5873673072243193 255 255 255
2.3894224914576703 -1.0825079391766532 11.8307963765528292 255 255 255
-7.2441870595089028 -3.7006160836896895 13.4793032199702072 255 255 255
1.1043257488453335 0.3609395200041503 11.6394635040039027 255 255 255
-5.3694682335387913 4.6184872451822194 13.4358403065157201 255 255 255
-0.4758315793837927 4.2588825213404284 11.3750279457695473 255 255 255
-5.6776846810097235 2.0174309737919693 12.5932321124215978 255 255 255
6.9934019982269495 3.5542212190740794 13.0555931000351819 255 255 255
6.3407691340383927 -0.5428422047785888 12.5771796446709523 255 255 255
1.9190169146165892 -0.5729021325898993 11.9396091178902957 255 255 255
-8.3897085390620312 -2.9288495937914774 14.1831101824755930 255 255 255
-2.5199629176660179 -0.7714178002502959 11.7811710835150603 255 255 255
1.3978094979296125 -0.0754812024710289 11.8666103080827359 255 255 255
1.0451039545062042 0.8971953623671766 11.6291881723466908 255 255 255
6.6189367239255406 -1.7608549173307153 13.1522638392116651 255 255 255
-0.1087584494177735 0.5921172788142990 11.5051897885729790 255 255 255
0.4701798710273193 0.5559409325026740 11.8236023770929748 255 255 255
6.1962770031420202 -2.1920850572724015 13.0406308183305750 255 255 255
2.1115319862434685 0.9363648645682924 11.7484382962353084 255 255 255
-1.2685991980908424 -0.5608556585291657 11.6432395701654112 255 255 255
-0.2393724423546472 0.7611082059903593 2.2021701691696882 255 255 255
4.8149329382199459 2.3234594608745995 12.3249609236469908 255 255 255
5.7675567878476350 3.7570820902788062 12.8368980338144141 255 255 255
1.2358664399015009 1.6729070664820269 11.6069200541741431 255 255 255
2.6159343826610026 1.6796350053686226 11.4502625996185117 255 255 255
3.4460093636912541 3.0575530379029354 11.7974650386841908 255 255 255
5.7377456563870517 3.7425629287996407 12.7917909489011645 255 255 255
6.1598194777633690 -1.6625749453854173 12.7651840601730662 255 255 255
1.7401030027712652 0.2655329499788684 11.8861911250293950 255 255 255
0.4602066136198728 0.5604952245167428 11.6518359074175351 255 255 255
0.5448554855114680 -0.3142087475936797 11.6717020536818357 255 255 255
-5.6301400636512184 -1.3693856443323074 12.8918982138937395 255 255 255
-5.5856610545286811 3.3456834117211165 14.0389732669796263 255 255 255
5.0963515359114337 3.5538443882506043 12.3421997219546036 255 255 255
1.0884116098996512 1.2570381207998278 3.7205686875125372 255 255 255
1.5276286176513643 -3.5935745678899100 12.2936744288077229 255 255 255
1.2270752710938468 2.7363486486107353 11.7549676644660135 255 255 255
6.0618953522256875 -1.5955154769832876 12.2599083003835148 255 255 255
-1.7970007050768324 -0.0604687253828153 11.8679071810860091 255 255 255
-0.5396859857253378 0.1004847301818576 11.6486173061908218 255 255 255
-1.3856358048352049 1.9006231699302334 11.5364636960399185 255 255 255
-2.2240317402870633 0.1929341042435255 12.0353881799413216 255 255 255
1.3830009971101318 -0.0743372481390093 11.7891893217310475 255 255 255
1.5499217852285412 0.3406546820075587 11.7999882119308115 255 255 255
-8.9645283116000023 3.8250336996286198 13.9928157230371220 255 255 255
8.7712157767266810 -3.1850184218435271 17.4958439696535493 255 255 255
3.2935087398084231 4.6649369062494133 11.9803090569032058 255 255 255
6.4638789990610865 -0.5654408222777952 12.8057953321214359 255 255 255
0.7935464976154205 5.1984269270354559 12.4139450162386407 255 255 255
1.8492025235476477 -0.3117503712729027 11.8372770524584237 255 255 255
2.4705817426848249 1.3421892017874339 11.8421146759106879 255 255 255
-7.9131064429451250 -4.0195404289763195 13.7252954328312544 255 255 255
3.6150470152612337 4.1485565839902785 11.9170516562906776 255 255 255
1.9146494120622042 -4.3302393065533105 12.8724943289302267 255 255 255
-5.2699272982887857 2.4828262943023183 12.4513790803269728 255 255 255
-5.1368665388725274 2.8108527471866416 12.0801703060637600 255 255 255
2.5789754398290694 5.1723626404492640 11.9634792963227827 255 255 255
-10.5785606420148000 -4.4137074075698299 15.5025329645972452 255 255 255
3.8458931827918534 -1.2586176148651023 11.9126547490343082 255 255 255
-5.7321052917450821 -2.3263791380647945 13.0098238258772625 255 255 255
-10.4040351605507517 -3.0365288902056857 15.3794602796102122 255 255 255
1.4381456263363717 1.0898048809624612 11.6410189054418041 255 255 255
6.3766117135937970 -2.7881713579693144 13.3744787982919728 255 255 255
2.6377269289549132 1.6828568823327907 11.5015498997050667 255 255 255
2.3771032761110349 -0.0965808804427642 11.8475908878367626 255 255 255
1.1043257488453335 0.3609395200041503 11.6394635040039027 255 255 255
0.4641321016762719 0.5591510071200152 11.7243270848458057 255 255 255
-6.4019165532556261 1.4853813032491574 10.7652363391484585 255 255 255
4.0672868985865485 -1.3521984367267281 12.4734361563206875 255 255 255
1.6681379485210164 -0.5638647911067214 11.7971885979195967 255 255 255
-5.4313896348840691 -4.0250576465585484 13.4142895192860827 255 255 255
6.0854161462195977 -1.6453942868544560 12.6567242042441919 255 255 255
-4.6243538007979437 4.9781318078035772 12.5457400269174126 255 255 255
2.4588135826269406 -1.1334192074075915 12.2082665776304999 255 255 255
6.2371810705053630 -0.5301819506043813 12.4028736572269569 255 255 255
-10.0900095544889137 -4.2488724126866915 15.2442311714342225 255 255 255
-4.0068584838625023 -0.6734883390226093 12.2231182478689071 255 255 255
-0.5832586812159992 4.5094014244942260 11.7451686545974177 255 255 255
-10.1235109576002333 -4.3534302550534036 15.2212582620557004 255 255 255
-1.4035416000798848 -0.7033437670908860 11.5552484905126533 255 255 255
4.7505736923624831 3.2399464454130409 10.7376654493413159 255 255 255
1.8392207933732729 -0.3056763683295729 11.8068519531774925 255 255 255
0.1592094113262904 -2.2574548531649068 11.9360347548663555 255 255 255
2.7219840940981963 -0.5884776018185131 12.2679860562818472 255 255 255
1.2132559163481669 -0.3948751168830378 11.8311619603844616 255 255 255
1.8045603381158615 -0.2989741658614057 11.6585808001166171 255 255 255
-0.7932584969327779 -2.8681322238060747 11.7898245466363996 255 255 255
3.1634400042888027 2.2337646734676615 12.3117792499146272 255 255 255
2.4393340391197738 -1.1181533053644426 12.1147560168943507 255 255 255
2.2361947859383560 1.5458405935819179 11.6446070194527707 255 255 255
2.8252438641239710 5.0671787433409312 11.9431554305754499 255 255 255
-5.3144980486539168 2.0393284950389878 12.3502880844092910 255 255 255
2.8560603064594381 3.3375990484357523 11.8311913015896693 255 255 255
-0.2086001950247713 -3.1622047700219755 11.9521521868430831 255 255 255
6.2915330819786668 -1.7111544193615185 13.0285010886747372 255 255 255
-5.0616590957484755 -3.1005350173899995 12.9652907988755342 255 255 255
-4.5169484110293823 4.8526231443531280 12.1774409381172859 255 255 255
-5.4481307513064925 -3.5059308157798559 13.1759996790803253 255 255 255
0.4008899978378337 2.1357079438971667 6.3898690917372143 255 255 255
3.6244244736999294 2.3566422590234373 11.4454173987526104 255 255 255
0.2862630826913132 0.3446533155580276 11.6980651653693393 255 255 255
-10.6956860735322579 -3.2750849344067561 15.1455503616256575 255 255 255
2.4432097548011789 -1.1129915525715317 12.0655273518461428 255 255 255
-1.4071178222217120 -0.6799103756519977 11.3558703888565891 255 255 255
-5.3932907537736030 -3.9773903314428285 13.2964410489513671 255 255 255
2.0573700692041879 1.2269920073681868 11.6888901161132619 255 255 255
5.1188420462043993 1.9428655171527922 12.1342903432627214 255 255 255
-10.9106184978066416 -2.5669408367019848 15.4907358070344472 255 255 255
-8.5080112563618666 -3.1534297266398870 14.2535624676794530 255 255 255
-9.4220517758834816 -3.3827568998782604 14.5733430652058171 255 255 255
1.6647325085950178 0.7613243741744338 11.7685887224664274 255 255 255
-1.2943862365491632 -1.8213691760558977 11.0402424696042463 255 255 255
-2.0329155787188182 1.7445620634124073 11.6195183280043004 255 255 255
1.8754071763613749 1.4096399872082293 11.6512364058836990 255 255 255
6.2964846302653026 -2.2322836006550046 13.2270204032147642 255 255 255
3.2950009644113911 4.6508746117537507 11.9762877301692416 255 255 255
-5.1878551841098659 -3.2276074387419187 13.3900312522978400 255 255 255
3.1924137151242400 0.0352620734178363 12.0749450994915701 255 255 255
6.1889576660312029 0.7533917565261886 12.3922275917371554 255 255 255
3.2941179891214682 4.6451382916518256 11.9856749553655497 255 255 255
4.6382405143937673 2.6464167365986278 10.1655731807003455 255 255 255
2.8823213291062171 1.6632522466023891 11.6198531604056861 255 255 255
2.6589396455941565 5.2268726034031516 12.1728848507299858 255 255 255
3.0322001490048409 4.0261388377007474 11.9763660842717936 255 255 255
0.4677290141814063 0.5631301362149996 11.7118778947742346 255 255 255
-3.7357596810908285 -2.6168961128358115 12.6840582938169835 255 255 255
1.8794001195689181 -0.5606007673616247 11.7976789296775664 255 255 255
-1.9559663000382366 2.5768620957251080 11.4739171181356063 255 255 255
2.8414114639929648 0.5492364149745450 11.8783869880848876 255 255 255
-1.1860649357864999 0.6588451504236049 1.6659966421222281 255 255 255
-5.4548087592132637 2.6619467373629795 12.3365004903964319 255 255 255
-7.4441272272598304 -4.2232632764453042 14.0176206330200657 255 255 255
-7.1350218431533898 -1.4464676742038751 13.1983989079755499 255 255 255
2.6024685690954352 -2.5789119969736771 12.5803649865126008 255 255 255
6.2167889476898237 -2.2046127167706455 13.0880101961907052 255 255 255
2.1080561594003648 1.2334972489810032 11.8632217182098625 255 255 255
1.0116564761661360 6.0358606885959443 14.3505829745577422 255 255 255
-10.9980608372692767 -3.8437644167792926 15.7497523645493303 255 255 255
2.1858404505922051 1.0366601279988861 11.6910207849206422 255 255 255
-5.2737644720567314 2.4907812233587832 12.4923259972658531 255 255 255
2.4109738234983156 -1.1117550474308182 12.0544386441520448 255 255 255
2.7596936828254797 5.3242248465554081 12.4179499168271938 255 255 255
-5.4785047564102189 2.6970865751399287 12.4344042740792453 255 255 255
1.8438851706642998 -0.3070313370095829 11.8137740984113702 255 255 255
-0.9324280344180186 -3.9515747407649009 12.6441095541565112 255 255 255
1.1978296309428420 0.4946233188132519 11.7471099034753994 255 255 255
1.3641791309415339 -0.0644164980913428 11.6694524370065711 255 255 255
1.9910421335492914 1.2129735824153973 11.5537055891135960 255 255 255
-5.2707317879459872 2.4830526522878498 12.4659703420969290 255 255 255
3.1506365758773218 2.2326695890804311 12.2355663969631259 255 255 255
-11.0918511609095276 -3.3883302362149270 15.5346039295754839 255 255 255
1.6426839503258917 0.3347486542483505 12.0298110650634236 255 255 255
4.8425269504450217 3.4154440536416972 12.2992379207270854 255 255 255
4.2421222682139081 4.4553670802264405 12.1222217435421094 255 255 255
2.6419333669176797 0.7953822336689121 11.7982053425923290 255 255 255
1.9972068593823791 0.0070180564387015 11.7850029968649395 255 255 255
-4.5729882521894121 -0.1302161512389650 12.3417476811703519 255 255 255
1.7048790283893738 2.0727395626429730 11.6991774329560556 255 255 255
1.7523814327221723 2.8647592114133440 11.7995404054706849 255 255 255
1.1626103531227441 0.2017517296674690 11.6442510569247233 255 255 255
-0.7732031806715375 -2.5011614135464395 13.7557412799370464 255 255 255
3.0607096578803041 2.2044356285087110 12.0360397224353477 255 255 255
-4.7372910665774182 2.8951979577733935 12.2187024768040047 255 255 255
-5.5000332868402193 2.6926907382775291 12.4777775754818716 255 255 255
1.9984518021476938 0.0047668894157970 11.7885615529142420 255 255 255
-10.5903473672089934 -2.0127910655528365 14.7641070798657079 255 255 255
3.2487903918163195 1.1165471751754217 11.6980132457123851 255 255 255
1.2974495999080031 1.1731142958316456 11.6060041650532320 255 255 255
-11.2222755059008676 -3.1829985494693647 15.4958962789467236 255 255 255
-5.4499543175615264 -4.0309628408120837 13.4460459356551976 255 255 255
4.7587761689635339 3.3934374515283490 12.1602176447447974 255 255 255
-7.8224419661730318 -0.8890648723889355 9.5484538511171522 255 255 255
3.0194803045023670 4.0201285134602864 11.9572174444443871 255 255 255
-1.4647986153260877 3.4963680522227656 11.7139300474556496 255 255 255
-4.9591490899004871 3.8381841835722654 12.3363398243326063 255 255 255
0.4766124098926666 0.5562445231748735 11.7030048630801193 255 255 255
2.7719571391375681 0.8966470872007322 11.8351770173354396 255 255 255
2.0660892730705438 1.2279703887213542 11.7201669295989426 255 255 255
3.3236803126087757 4.6727335425195706 12.0585482849759380 255 255 255
1.3942922897883521 -0.0711633977848398 11.8232550078759449 255 255 255
-1.2908661051781229 0.5912199415382818 11.6942566128041747 255 255 255
3.1605327593718435 3.5305476091867090 11.8565067101181487 255 255 255
3.0534470897534298 4.0489021983961244 12.0301640011813511 255 255 255
-11.2003110080903738 -3.2743183493293087 15.4528403058480208 255 255 255
2.5998485713084336 -1.1534325929590337 12.3910930233831866 255 255 255
-4.6325949462921585 4.9637753713816908 12.5307585911120309 255 255 255
-5.4368645251324921 -1.2973060742571207 12.4326328398706707 255 255 255
3.0129546068953750 4.0104255594036760 11.9504725742398108 255 255 255
0.1707862326593262 -2.2840941011243494 12.0390542380373624 255 255 255
4.7628720697403555 3.3915514226674026 12.1726030725768073 255 255 255
1.9962332252940096 0.0085446790921042 11.7795779417139190 255 255 255
2.0044709072102758 0.0041343917693716 11.8087490114483682 255 255 255
-10.3709695872530343 -3.0037394754075084 15.2016854940261457 255 255 255
2.9287371798127242 -0.6147025323676441 11.7986208192655013 255 255 255
1.7046414383819009 2.0669228991420621 11.6838794012347318 255 255 255
2.4362656647181171 -1.1132119355970267 12.0869188599102930 255 255 255
3.6553168061057901 4.2104355621475991 12.0423364268115236 255 255 255
1.2909635526431424 1.1703710404424355 11.6184321756954034 255 255 255
1.3925878299306231 -0.0767318492727539 11.7976088541530100 255 255 255
1.9936302396057000 0.0052035406895336 11.7768087428113546 255 255 255
-0.1025822487893819 -2.4613335626374839 12.1457237559919093 255 255 255
-5.4299880328824832 2.6689325485301949 12.3191608396936481 255 255 255
2.6062119520034970 1.6785032393277444 11.4364658298206194 255 255 255
6.2627573975745401 4.2644187526660646 12.6536569227445579 255 255 255
-8.2585902268345865 -4.0478968091680265 14.1565214942524573 255 255 255
-5.0578783531807110 -3.0755877820197743 12.9101481073808984 255 255 255
3.2111744287914408 3.1071092527956550 11.8406590428261964 255 255 255
-8.2200880171650645 1.8382921712157514 14.2052002229577745 255 255 255
