ply
format ascii 1.0
element vertex 117
property double x
property double y
property double z
property uchar red
property uchar green
property uchar blue
end_header
0.0000000000000000 0.0000000000000000 0.0000000000000000 0 255 0
-0.9933839813787130 0.1085928398007200 -0.0373612189869545 0 255 0
2.8102997142070536 -0.3779278771052084 12.8240193141512240 255 255 255
2.6702480834212072 4.8083441022753330 12.7434511310544938 255 255 255
-0.6593467728751853 0.1320865695076465 12.7672757561777512 255 255 255
-6.7659873164298023 -3.4269562056877567 15.3108675936734127 255 255 255
-4.4190650549478940 2.8880387465001682 13.7243195874104682 255 255 255
-6.6846233028346509 -3.2496399164941248 15.3290384952070387 255 255 255
1.5296297615791776 0.5553201779266699 12.8169588507811909 255 255 255
-4.3684345787750569 3.0609242470547433 13.6678137661921770 255 255 255
-8.7520443762434752 -3.2641386476823850 15.9572871411129942 255 255 255
0.7866725728938068 -1.7705297063913465 13.1840911191526153 255 255 255
6.6994139999452056 -1.8387119027353667 14.1250983395632499 255 255 255
-4.5230380055163861 -2.8383409834327340 14.5432281357061157 255 255 255
2.0719966258443101 0.8775610051879589 12.7658090654676784 255 255 255
-0.0617663644939665 -2.0649216796960181 13.4648626651284022 255 255 255
-0.1041763729570776 -1.2068434154516661 13.0538877634167623 255 255 255
1.9925620200298915 -2.5811715093265124 13.4080450925670789 255 255 255
2.1832928319346165 1.0295821097383073 12.6911649610809523 255 255 255
0.8695960615657278 1.0532713374082823 12.7697015800633427 255 255 255
1.6415505096020797 1.1091718204773879 12.5249352424570883 255 255 255
1.5649480405476817 3.4584378968609220 12.7674090386839900 255 255 255
2.3607785475581626 3.6468269079967239 12.8709680161217328 255 255 255
-1.0117189751866471 -0.6674022473722450 13.1287014532126989 255 255 255
-1.1174166570184012 1.4233537513565353 12.9753220749646587 255 255 255
0.0226301967264097 -0.1131445332609301 12.8178432471626191 255 255 255
2.1092103190102085 -0.0066796638126187 12.8157389624041382 255 255 255
3.5682087750710534 4.3330759767869358 12.9719572876209366 255 255 255
2.2349428516112568 1.7843625334318052 12.7416375728229951 255 255 255
-1.1007548416815680 1.6088023762216033 12.8084193145025242 255 255 255
2.7382151162431883 4.4624929969732010 12.9632619260847388 255 255 255
1.6082140086872181 1.6310073841895700 12.6237094788484878 255 255 255
3.0044468317518320 2.1041976232371926 12.5663705773592369 255 255 255
-0.9015822725396690 1.6749706426414430 12.8254505367268976 255 255 255
6.0463155289873605 -1.4384969171573674 13.8678669133616204 255 255 255
-6.7176169277935962 -0.9095834806406510 14.7716207311321313 255 255 255
-3.9101463697649379 2.7930023967837720 13.5005974808295246 255 255 255
-3.1025878870443826 -0.1973854494786753 13.4966287670477367 255 255 255
0.1608414144393208 -2.0950750784179832 13.4151677255617798 255 255 255
-8.6297505125341782 -2.3427794612741191 15.9986378923720274 255 255 255
-0.5061112090667783 -1.8762506700791886 13.2985218571286072 255 255 255
-0.9136277476709206 -1.0022483634970414 13.1663959164362012 255 255 255
-4.8484988040849082 -0.8501850974881467 14.0320271359092157 255 255 255
1.9212388539152474 2.3877999415868127 12.6918145868200281 255 255 255
-4.6742506360722880 2.7365469356943666 13.8096398957383197 255 255 255
-5.0098948713594664 2.8827767759332121 13.8861940211004740 255 255 255
2.4457240687754314 2.7620335312900006 12.8134303034226278 255 255 255
-4.5312004845572380 3.3555609667618072 14.1460045303985158 255 255 255
2.2757225533114513 3.4896510742094193 12.7813128462096159 255 255 255
-4.4591445315885254 3.9275685950792791 13.8396646224804361 255 255 255
2.6536335443658539 3.6443964856685271 12.9381229006638439 255 255 255
2.5969488507362151 0.3697733515983836 12.8946035812899069 255 255 255
2.9182991417059441 4.4693169974820037 12.8637600733795363 255 255 255
0.7856176921018073 0.8750340934434530 13.0380336488038306 255 255 255
-4.3906630949022105 5.2413785675644373 13.9817468450535642 255 255 255
2.8385232030355718 1.2634273475842517 12.8678753859470039 255 255 255
5.9126405274510967 -2.7056312508452698 14.2157533656922315 255 255 255
-1.4343154555929236 1.5917464905020637 12.9095988740554759 255 255 255
-5.0888229860048906 1.9607585527146640 13.9292554020269499 255 255 255
1.5067861656560761 2.0625000218095773 12.6599394886255094 255 255 255
3.8511176915804270 3.0870168556977631 12.8294899990200033 255 255 255
6.4340157791385639 -1.1173684082523763 13.9726078423491202 255 255 255
4.2802060113539797 3.2629917091934932 13.1694666878277786 255 255 255
-3.4981135629086975 -2.7759412950482298 14.3137498467952611 255 255 255
2.5452926087993317 0.6884768617153876 12.8864373595010804 255 255 255
2.9152766609411040 1.5530537079617135 12.5500516514051110 255 255 255
6.9436752936930910 -0.9566247887123192 14.4601250504518095 255 255 255
0.5880017197141303 -2.0568758582450086 13.3083168949736290 255 255 255
2.0113834876282781 0.1164092961915500 12.7112711755055905 255 255 255
3.2529492930248707 4.0452309178145391 12.9726602331097336 255 255 255
-5.1540429068078133 2.5114149838180171 14.0233798033611183 255 255 255
2.9725484784252894 0.1172776002632712 12.9089612297247633 255 255 255
-0.7586650074000257 4.7301601091103045 12.9215096954070603 255 255 255
1.1773714323618703 0.5141448233759081 12.8540848591411141 255 255 255
0.1152640767836660 -1.5079663533127410 13.0341433569328800 255 255 255
3.0720901688215898 2.5575500949234140 12.4292054604254947 255 255 255
2.4842669590788331 3.8532851138109439 12.5631808055659455 255 255 255
3.3663218961565318 3.4267983560563371 12.9633861119584903 255 255 255
5.9590687380393010 1.3570012754221461 13.6459932623816442 255 255 255
6.2065842753856089 3.7062360181355389 14.3275313193385134 255 255 255
0.6678278254841161 0.4850562859621626 12.7731201504409846 255 255 255
1.1180269644699099 -1.9338998262973790 13.2049593503589318 255 255 255
-1.1414011944226072 0.8809842002942619 12.8965150883458950 255 255 255
5.4084414754672343 2.8506970789206618 13.6582518435033737 255 255 255
-1.2139958064860932 3.3686468063154238 12.9468959525741898 255 255 255
4.0115511694719554 2.6578815525264585 12.8898592357368500 255 255 255
-3.9519396426942559 -1.2528996862866915 14.0817673826005194 255 255 255
1.9984767112448221 4.2022861492983381 13.0131420349202163 255 255 255
-6.9922827747215575 2.2856723537850510 15.1176975992036695 255 255 255
2.9464232925212954 3.0702657822742343 12.8259576269588411 255 255 255
4.4272933514778696 2.5301327047793229 13.1560153858147793 255 255 255
0.7114678885558507 1.0980073792412659 12.7063361060877700 255 255 255
-0.8545559344823029 1.3771416419432885 12.7968557984031399 255 255 255
-7.7067226040327990 -3.3091634450012619 15.5416593110367458 255 255 255
4.7852483395590024 3.4105575781006268 13.4014562108608875 255 255 255
3.7325800101291327 3.9039965773284351 12.9141719585877901 255 255 255
1.0285614539265737 2.6366675665347836 12.2461019261984010 255 255 255
2.7196886205431285 -1.6360514915487765 13.5393461641278225 255 255 255
1.4715767122612349 0.9500851940646790 12.7313592545236691 255 255 255
-4.4299006276865738 2.6001033515061014 14.0468851425392582 255 255 255
4.1504746427666346 2.5234981477947542 13.0052898480835371 255 255 255
-1.1874948237868639 3.5475269401808829 12.9448875913517636 255 255 255
4.8288888762613080 5.1658985572123894 13.3844902937282697 255 255 255
5.5017927108674396 -2.9755750457596535 14.2765207510818080 255 255 255
3.4133786250918177 3.7558160924568980 12.8410132561268817 255 255 255
1.9470860527707543 1.8607694914325039 12.7732919172811012 255 255 255
-3.6935010662098202 4.9329836864002736 13.2315429271138587 255 255 255
-3.0327413938272922 1.0042983915078447 13.5298696290758365 255 255 255
0.2184119553312163 -1.4117338049594796 12.1636978313620325 255 255 255
-4.3603081032346767 5.0337598534691832 13.8726897420721773 255 255 255
0.9226390390009112 -1.6580059127143101 13.2144643987566415 255 255 255
2.6669129139086234 5.0372720165623255 12.9544480060194278 255 255 255
-4.0955574993360591 3.1553725886104718 13.5252448899342852 255 255 255
4.7541306594185881 4.8490811104551383 13.1886297002390922 255 255 255
2.8385232030355718 1.2634273475842517 12.8678753859470039 255 255 255
6.0300789923141993 0.1825350901156897 13.5356356056363420 255 255 255
1.5296297615791776 0.5553201779266699 12.8169588507811909 255 255 255
