ply
format ascii 1.0
element vertex 30
property double x
property double y
property double z
property uchar red
property uchar green
property uchar blue
end_header
0.0000000000000000 0.0000000000000000 0.0000000000000000 0 255 0
0.4705126852443510 0.1113022563283787 0.8753454293936550 0 255 0
16.4257147547538480 -347.3481640364585701 1853.2472180573017795 255 255 255
-735.2038710666306542 -1539.2918456738152599 7891.0956733349257775 255 255 255
1317.7033486707152861 -561.5267584630283864 5982.7607415467336978 255 255 255
145.3562853881692263 65.7582060461861317 471.7866497592435735 255 255 255
-304.3693608851943395 -612.1666000536284855 2703.5403076767652237 255 255 255
-215.8895873430978440 123.5020739329163604 -775.3625198127326712 255 255 255
-19.2840416212736656 263.8315242855688894 -1332.9139921875037089 255 255 255
47.8953507583038771 11.8802489629250161 96.2012764657791735 255 255 255
-6378.8381726658381012 -49164.1496714253516984 262746.8056001162622124 255 255 255
-18.2915605124713387 -5.4198834697412455 -38.8982356361209156 255 255 255
325.1740296829786985 113.6998590000663256 800.2360969019525783 255 255 255
-246.5739914693268986 -382.9090344639017189 2020.7320722168879001 255 255 255
-81.1668695406026899 -236.9019883347807252 1090.2076078938500814 255 255 255
296.4531356416308654 30.0281707556133703 1173.3603068038476067 255 255 255
226.3788676596700498 -417.3146611258270013 -2388.8304978543260404 255 255 255
43.2013879045316926 -0.6009301538402764 86.5046882215168011 255 255 255
-815.5582655522892992 -267.3626333322825985 2022.0331637911203870 255 255 255
-2601.1963069277953764 -1330.2828385628386059 7062.9465051397919524 255 255 255
1073.7956551565630434 -576.2588378126688440 3048.3943265347465967 255 255 255
214.1292672474426695 -169.4714282125200668 -926.3172798012800513 255 255 255
-906.2156594963221323 427.6208271603582602 -1936.5444649353496516 255 255 255
1582.2964101567808939 609.0958998265659829 3451.2055980257382544 255 255 255
57.5351684618128871 19.8868321581989633 116.0108041481321663 255 255 255
85.2445462016783750 73.6369134300612274 337.8504784386777260 255 255 255
203.6278467229377327 -208.3844397520105645 -671.6861603329697346 255 255 255
-225.2103322818185518 147.0948860547142658 -721.4467063927727395 255 255 255
-471.4097146987553515 55.7385903164956460 -1884.9086437552352891 255 255 255
-132.4688913270647390 96.2999982810635231 -430.1023045029154446 255 255 255
