ply
format ascii 1.0
element vertex 152
property double x
property double y
property double z
property uchar red
property uchar green
property uchar blue
end_header
0.0000000000000000 0.0000000000000000 0.0000000000000000 0 255 0
0.5449563360901405 0.6051240518755515 -0.5803856249054824 0 255 0
47.3895546549625806 76.9477397087510155 217.1345700569519011 255 255 255
-160.7120843508243979 -48.3545228640959337 337.2836099713952080 255 255 255
44.0370940949959646 29.1801141821845995 188.6523907260631461 255 255 255
184.0903220421739093 -15.0488299362142257 373.0874156003146140 255 255 255
-38.0266555748935460 18.2273679058295741 220.1874812349260253 255 255 255
104.2584975626723320 13.5372705151319366 252.3157907236428628 255 255 255
55.9537439855978533 10.7930443393297271 232.0997260448690440 255 255 255
55.9537439855978533 10.7930443393297271 232.0997260448690440 255 255 255
88.4549374788125107 -48.6427128599809890 332.3688467438448129 255 255 255
-100.0161909562149134 -16.7087949127278677 217.5616132588155267 255 255 255
-61.8732883581390141 0.0729685894472039 192.8209802308616645 255 255 255
26.3325208498989412 -50.6582422299782280 265.9340366029523466 255 255 255
89.8623403734769397 7.6320262103989762 208.2595183375133274 255 255 255
-106.1872606407575290 7.3282274750746721 238.1615277727244973 255 255 255
95.1457300055104156 17.5919966605946279 229.9103689522804075 255 255 255
-47.5841424493822274 20.7415524120896890 220.6216458198008183 255 255 255
92.9382745091126026 10.5562945685302445 216.5562671522306744 255 255 255
-48.7247561170633290 23.9977307775367379 236.5451089445588764 255 255 255
-57.6257529180082670 17.2125099562172146 197.9864234307129891 255 255 255
3.2823193613843307 16.1919661214241692 213.8962818335097609 255 255 255
131.7150723362477152 6.1138271593668465 272.4515848891784913 255 255 255
-68.9084146818587158 -12.9028146017540877 235.0885767430548583 255 255 255
60.0419607739441048 19.2998103513905654 253.5192167096276137 255 255 255
60.9070104546334363 8.1955660358953768 239.2653714745602258 255 255 255
31.8067388905732713 15.0587611564863426 221.9046828431695246 255 255 255
97.6815999736409992 34.5523146134650645 234.3162346613364377 255 255 255
83.8736698329560255 12.8913632977807744 263.7892732605073434 255 255 255
37.0850862891549156 8.8856972210959277 135.0095472597117521 255 255 255
41.1710557190783177 13.2754019247616259 202.4994113290323412 255 255 255
145.4430645464966574 -66.4462320894994178 680.0010043805366422 255 255 255
87.5696790769653290 4.1579204489223835 239.6019939631668194 255 255 255
42.3536958489491582 28.4089874473414135 196.7977397381173716 255 255 255
122.8051191514929457 -5.0922767496960573 244.1107244151725979 255 255 255
-67.9552066799300434 32.4199669044117016 212.8764796359373577 255 255 255
-159.7560665952379964 -40.9759084064844998 343.7348767154157940 255 255 255
21.5870781897144433 23.5810618170964581 199.5564734331472891 255 255 255
107.5270820890207233 -0.1722493044932312 247.9609301776633856 255 255 255
155.2280205737665426 4.8845292610264677 335.0656053736742024 255 255 255
49.2529191882229611 11.9455858189510096 220.2998751396508794 255 255 255
91.2756005568816278 4.0669961201098088 210.2949809936134216 255 255 255
34.0038728674314399 8.8783777165181199 238.9372256121320675 255 255 255
-51.0607822815891623 19.4982094184697026 184.7230159458070773 255 255 255
126.1236512918305408 17.0963409755125006 256.5877422262299774 255 255 255
-3.9586576034232328 15.0813532979665261 120.6841189930623273 255 255 255
25.0553494274319952 25.8108156866994811 199.7483710103049361 255 255 255
84.1579579593214362 18.4224549504561530 237.4187305416243987 255 255 255
-93.3537953935996967 0.5021295298117220 372.9045187371376642 255 255 255
32.2993794918221155 17.8367040402823491 212.7456742751660954 255 255 255
150.4805009605662462 29.4834260871603213 285.7101445614606519 255 255 255
51.6874074358459410 9.2063822795054886 189.4873782718733537 255 255 255
12.2745704340867636 -89.3737028531498652 513.1502321456982827 255 255 255
18.1246987532729058 -37.4867953850600131 266.9753472251476865 255 255 255
24.6293208865926445 21.4137903772305656 203.1902782366479698 255 255 255
114.0777745634779876 -1.1955841813680697 243.8623683373243693 255 255 255
118.0566799169898644 3.2411093172245766 233.4725267281433787 255 255 255
-50.2829910221280443 15.5876379844307102 218.9077748430865142 255 255 255
-76.6514616261079738 -20.5376244170817905 156.2900348148280614 255 255 255
295.1651006306782392 -17.3843999396753688 605.8155180040076857 255 255 255
92.1363295229153181 26.6117722852047400 198.3859303969126984 255 255 255
110.3703479236716021 1.3252621318635134 259.5169729365749163 255 255 255
20.1580620394723553 13.2382650576829697 259.3997545053062481 255 255 255
54.2889871250098537 -18.9485970984825371 192.7116860298935705 255 255 255
27.9667298944727065 -24.7472721744790682 188.3842532717523568 255 255 255
-142.9487916937524403 -41.8062131701839377 282.4197567673070353 255 255 255
-99.8244199134745855 -15.0277573708666807 209.2043906947377820 255 255 255
-142.2562421806813688 -37.3376733412304773 315.8855919489263897 255 255 255
-145.8172956659079489 19.3355961880980693 357.5293071031395016 255 255 255
37.1886895184557318 12.5738187846339802 199.6942789661156041 255 255 255
-63.8647168796327946 31.2953437734025925 189.0724973629393730 255 255 255
-5.5132349784345411 22.0089766295899061 224.5718093534713375 255 255 255
-393.7490321550867520 -75.5886458373566938 793.6451289499764243 255 255 255
-134.4973985550877273 -24.6321686795639501 255.2806498073928481 255 255 255
24.6843987254800581 26.1120863884170475 173.5116860665232252 255 255 255
37.7212980295707254 10.3678225970525713 236.3818772695829296 255 255 255
5.1106303902708508 16.6395930583231113 196.4843664216523962 255 255 255
-614.9385892607377855 -133.1330865147907900 1249.1971995108576721 255 255 255
42.6951204585040074 5.2647706779482748 241.1370166167708646 255 255 255
122.9278507304967434 3.2005346905616738 250.0069871758918225 255 255 255
84.7789004098361119 5.1160060622252290 262.3306235267365309 255 255 255
-58.4701813007710172 -4.3983692125086709 216.9355560726690157 255 255 255
-57.8981058400493183 9.3367235273653399 207.6646646238417304 255 255 255
-149.4239995169482143 -45.0653755327487744 304.8840043270278670 255 255 255
-68.3256014640551399 7.0336163290208011 207.4350781288387111 255 255 255
-64.0692358869162177 5.8504025198355780 172.5830060714459364 255 255 255
-2.4313841798381972 16.1181343512047199 116.0770031957380155 255 255 255
-196.3065885512218642 -42.8667606804300334 432.3992727034428754 255 255 255
4.5631872734686247 19.5246068559254908 175.0119644471901665 255 255 255
-142.8712749853325761 -28.0952632247338983 278.3737431823712427 255 255 255
-51.2342681710849774 -7.2183672910403303 207.9599909874156936 255 255 255
-49.4904466641146286 -4.2096104799183056 217.5445740824960978 255 255 255
31.0342229874563138 16.5836930483246690 177.6444084142076747 255 255 255
-83.6067511183608190 8.5349811915581579 217.1181843588691436 255 255 255
0.6437950415893662 -65.5358319494393982 325.0948710171339258 255 255 255
92.1363295229153181 26.6117722852047400 198.3859303969126984 255 255 255
83.7455525400296352 4.0388555906047756 234.0392515327554577 255 255 255
-55.9677281247012033 9.4339538239843854 218.9392953913158522 255 255 255
-54.5350891316244457 5.2330430239685279 186.6538880929941797 255 255 255
-50.7949120895284807 27.9857846753002626 221.9321874072165883 255 255 255
-74.3932148884271669 32.5725006192573616 164.0928430983425983 255 255 255
-36.8411363722731267 -21.1012031574980057 368.8284135548295808 255 255 255
-125.7448066685265502 42.0265935925086822 334.2826090186015904 255 255 255
-154.4160738448831012 -43.3269914774692708 332.9579232550649408 255 255 255
-108.5866092883531309 9.1127421666274095 236.4181172753203555 255 255 255
41.4208192315784629 10.6823671092648382 227.5026359283924648 255 255 255
110.7363216699319963 -29.9760524028522788 528.5846394638116408 255 255 255
-43.8694637072305227 21.1662494599840549 229.6471589030988696 255 255 255
-4.2369018241873571 28.6977025468813665 172.5988050793502566 255 255 255
106.0227864397239159 -63.7906754831262077 322.9625711763950449 255 255 255
-192.9885615431539065 -61.0758193395352507 419.2760121663152972 255 255 255
-99.9691747357619533 -22.0559420810488582 285.7472993687034659 255 255 255
-141.0643826279768689 -48.3799617498033570 280.5809843280708265 255 255 255
-184.3977671728321468 10.6816736730354549 388.9180874053652701 255 255 255
22.3039309967511130 -69.1347758441199431 347.8813202371720763 255 255 255
125.5787517072201496 -17.7424997966651503 291.9907421112528709 255 255 255
7.0543513259975255 -32.3263806361840764 197.9200916270154096 255 255 255
107.5532888303939671 -43.5568986512056711 311.4253657149950527 255 255 255
-802.1114428026602354 -360.5495095994641588 1679.5651432896952429 255 255 255
-3.2524234686388347 -30.4908249563000560 186.5844654840259693 255 255 255
-226.6864080215653985 -120.9592861059538649 1041.1053698110761161 255 255 255
149.7872802735379878 -47.1685262750636340 292.0655155340527358 255 255 255
5.9840062071568552 33.7187596374767224 172.4957908793789443 255 255 255
-170.5708670597279593 -54.2566466940989258 334.3968936826943263 255 255 255
20.3034617597894673 30.2832704504906332 207.9199583870253036 255 255 255
104.9218705601469566 24.3609853681527966 236.6915768500146839 255 255 255
-32.7022349378225314 16.7129863308348163 235.4505209216623030 255 255 255
9.5724622122592944 18.0666690361171831 223.2891168640836099 255 255 255
2.0580471933538629 28.3613279857335350 180.7023867242202186 255 255 255
-75.8268223327383453 7.2827107207965041 213.9075151977475571 255 255 255
10.9486650993316736 -31.4025463715783211 141.5493702606840998 255 255 255
-158.3669944951943762 40.2836184804627422 296.1962360642065164 255 255 255
-154.4160738448831012 -43.3269914774692708 332.9579232550649408 255 255 255
-79.6922736692495022 29.5258706956465389 201.7404993204527273 255 255 255
-134.3702240803175982 -32.7708667879610616 260.1709386241376478 255 255 255
-56.5302768269357188 29.5545083620686171 176.0737577530158262 255 255 255
39.4966098309970306 15.6960519669848075 231.4767327613247403 255 255 255
150.5559466892017610 21.9404041882639262 286.5031600609855786 255 255 255
104.8423067889073508 -178.1790718452271278 852.1731043039868609 255 255 255
-8.2459816653783449 -66.4962453314733892 335.8831836090573120 255 255 255
-62.6126637175487204 20.6512059749757633 240.4522786238293861 255 255 255
-74.0886193334325327 -1.2649907365846724 243.7634212665160476 255 255 255
129.6368802998823924 124.5223494569325027 360.6137144828617807 255 255 255
141.9027720244475859 128.6760610604232511 359.6299860524799783 255 255 255
92.5815052583397033 10.0413102512851946 182.7081722897293332 255 255 255
6.2757570124850375 16.3752824442258991 239.0265444899136185 255 255 255
-4.1012238640467107 29.7636814228062434 78.1209055977626718 255 255 255
-5.0189720989610809 28.1789813579755268 106.8076791126789544 255 255 255
125.6132490195830513 118.7383613648357112 313.7337870092034109 255 255 255
-141.0643826279768689 -48.3799617498033570 280.5809843280708265 255 255 255
155.2280205737665426 4.8845292610264677 335.0656053736742024 255 255 255
-48.2761160973925669 -63.9835697615990213 370.8343559458301115 255 255 255
